<svg width="80" height="80" viewBox="0 0 80 80" fill="none" xmlns="http://www.w3.org/2000/svg">
<rect width="80" height="80" rx="10" fill="#428821"/>
<path d="M26.0968 43.0017L30.9349 47.6485C31.0511 47.7599 31.1893 47.8483 31.3417 47.9086C31.494 47.9689 31.6574 48 31.8225 48C31.9875 48 32.1509 47.9689 32.3032 47.9086C32.4556 47.8483 32.5938 47.7599 32.71 47.6485V47.6485C32.9429 47.4258 33.0736 47.1246 33.0736 46.8106C33.0736 46.4966 32.9429 46.1954 32.71 45.9728L28.2596 41.7063H53.7499C54.0814 41.7063 54.3994 41.5811 54.6338 41.3582C54.8683 41.1353 55 40.833 55 40.5178V40.5178C55 40.2026 54.8683 39.9003 54.6338 39.6775C54.3994 39.4546 54.0814 39.3294 53.7499 39.3294H28.1846L32.71 35.0391C32.8272 34.9286 32.9202 34.7972 32.9837 34.6524C33.0472 34.5076 33.0798 34.3522 33.0798 34.1953C33.0798 34.0384 33.0472 33.8831 32.9837 33.7383C32.9202 33.5935 32.8272 33.462 32.71 33.3515C32.5938 33.2401 32.4556 33.1517 32.3032 33.0914C32.1509 33.0311 31.9875 33 31.8225 33C31.6574 33 31.494 33.0311 31.3417 33.0914C31.1893 33.1517 31.0511 33.2401 30.9349 33.3515L26.0968 37.9627C25.3945 38.6312 25 39.5374 25 40.4822C25 41.427 25.3945 42.3332 26.0968 43.0017V43.0017Z" fill="white"/>
</svg>
