<svg width="80" height="80" viewBox="0 0 80 80" fill="none" xmlns="http://www.w3.org/2000/svg">
<rect width="80" height="80" rx="10" fill="#428821"/>
<path d="M53.9032 37.9983L49.0651 33.3515C48.9489 33.2401 48.8107 33.1517 48.6583 33.0914C48.506 33.0311 48.3426 33 48.1775 33C48.0125 33 47.8491 33.0311 47.6968 33.0914C47.5444 33.1517 47.4062 33.2401 47.29 33.3515V33.3515C47.0571 33.5742 46.9264 33.8754 46.9264 34.1894C46.9264 34.5034 47.0571 34.8046 47.29 35.0272L51.7404 39.2937H26.2501C25.9186 39.2937 25.6006 39.4189 25.3662 39.6418C25.1317 39.8647 25 40.167 25 40.4822V40.4822C25 40.7974 25.1317 41.0997 25.3662 41.3225C25.6006 41.5454 25.9186 41.6706 26.2501 41.6706H51.8154L47.29 45.9609C47.1728 46.0714 47.0798 46.2028 47.0163 46.3476C46.9528 46.4924 46.9202 46.6478 46.9202 46.8047C46.9202 46.9616 46.9528 47.1169 47.0163 47.2617C47.0798 47.4065 47.1728 47.538 47.29 47.6485C47.4062 47.7599 47.5444 47.8483 47.6968 47.9086C47.8491 47.9689 48.0125 48 48.1775 48C48.3426 48 48.506 47.9689 48.6583 47.9086C48.8107 47.8483 48.9489 47.7599 49.0651 47.6485L53.9032 43.0373C54.6055 42.3688 55 41.4626 55 40.5178C55 39.573 54.6055 38.6668 53.9032 37.9983V37.9983Z" fill="white"/>
</svg>
