<svg width="32" height="32" viewBox="0 0 32 32" fill="none" xmlns="http://www.w3.org/2000/svg">
<g clip-path="url(#clip0_60_418)">
<path d="M31.9387 7.38934L20.7147 18.6133C19.4632 19.8617 17.7677 20.5627 16 20.5627C14.2323 20.5627 12.5368 19.8617 11.2853 18.6133L0.0613333 7.38934C0.0426667 7.6 0 7.79067 0 8V24C0.00211714 25.7675 0.705176 27.4619 1.95496 28.7117C3.20474 29.9615 4.89921 30.6646 6.66667 30.6667H25.3333C27.1008 30.6646 28.7953 29.9615 30.045 28.7117C31.2948 27.4619 31.9979 25.7675 32 24V8C32 7.79067 31.9573 7.6 31.9387 7.38934Z" fill="#FCFCFC"/>
<path d="M18.8295 16.728L31.0082 4.548C30.4182 3.56976 29.5861 2.76005 28.5922 2.19698C27.5982 1.6339 26.4759 1.33646 25.3335 1.33334H6.66685C5.52448 1.33646 4.40219 1.6339 3.40822 2.19698C2.41426 2.76005 1.58216 3.56976 0.992188 4.548L13.1709 16.728C13.9223 17.4764 14.9396 17.8966 16.0002 17.8966C17.0607 17.8966 18.0781 17.4764 18.8295 16.728Z" fill="#FCFCFC"/>
</g>
<defs>
<clipPath id="clip0_60_418">
<rect width="32" height="32" fill="white"/>
</clipPath>
</defs>
</svg>
