<svg width="30" height="30" viewBox="0 0 30 30" fill="none" xmlns="http://www.w3.org/2000/svg">
<path d="M24.9389 25.2014H20.6019V18.4096C20.6019 16.7899 20.5731 14.7058 18.3462 14.7058C16.0875 14.7058 15.7413 16.4697 15.7413 18.2928V25.2014H11.4058V11.2341H15.5697V13.1423H15.6274C16.4769 11.6913 18.0548 10.8245 19.7351 10.8865C24.1313 10.8865 24.9404 13.7784 24.9404 17.5385L24.9389 25.2014ZM6.51202 9.32451C5.12163 9.32451 3.99519 8.19807 3.99519 6.80769C3.99519 5.4173 5.12163 4.29086 6.51202 4.29086C7.9024 4.29086 9.02885 5.4173 9.02885 6.80769C9.02885 8.19807 7.9024 9.32451 6.51202 9.32451ZM8.67981 25.2014H4.33846V11.2341H8.67981V25.2014ZM27.101 0.263938H2.15913C0.980769 0.250957 0.0144231 1.19567 0 2.37403V27.4183C0.0144231 28.5981 0.980769 29.5428 2.15913 29.5298H27.101C28.2822 29.5442 29.2529 28.5995 29.2687 27.4183V2.37259C29.2514 1.19134 28.2808 0.24663 27.101 0.262496" fill="#FCFCFC"/>
</svg>
