<svg width="34" height="28" viewBox="0 0 34 28" fill="none" xmlns="http://www.w3.org/2000/svg">
<path d="M30.5192 7.064C30.5391 7.36292 30.5391 7.66325 30.5391 7.965C30.5391 17.1833 23.5209 27.8125 10.6916 27.8125V27.8068C6.902 27.8125 3.19033 26.7273 0 24.6803C0.551083 24.7468 1.105 24.7794 1.66033 24.7808C4.8025 24.7837 7.854 23.7297 10.3232 21.7888C7.33833 21.7322 4.72033 19.7857 3.80658 16.9438C4.85208 17.145 5.92875 17.1039 6.95583 16.8248C3.70033 16.1675 1.36 13.3073 1.36 9.98658C1.36 9.95683 1.36 9.92708 1.36 9.89875C2.33042 10.4399 3.41558 10.7388 4.52625 10.7714C1.46058 8.72433 0.51425 4.64717 2.36583 1.45967C5.9075 5.81733 11.1336 8.4665 16.7422 8.74842C16.1797 6.32592 16.949 3.78725 18.7595 2.083C21.5687 -0.559083 25.9873 -0.423083 28.6294 2.38617C30.192 2.07875 31.6894 1.505 33.0593 0.69325C32.538 2.30825 31.4486 3.67958 29.9922 4.55225C31.3763 4.3865 32.7264 4.01675 34 3.45292C33.0636 4.854 31.8849 6.07658 30.5192 7.064Z" fill="#FCFCFC"/>
</svg>
