<svg xmlns="http://www.w3.org/2000/svg" width="400" height="400" viewBox="0 0 200 200" version="1.1"><path d="M 8.541 91.670 C 8.928 94.876, 11.372 106.134, 13.971 116.687 C 19.435 138.871, 16.698 135.147, 39.986 152.087 C 61.851 167.993, 64.027 169.742, 67.009 173.805 C 73.338 182.428, 77.290 184.995, 81.954 183.514 C 86.274 182.144, 87.508 178.408, 87.397 167.043 C 87.340 161.245, 86.750 153.936, 86.087 150.803 C 84.888 145.144, 84.776 145.011, 69.348 131.053 C 54.915 117.994, 51.069 115.462, 49.507 117.989 C 49.171 118.532, 52.519 123.262, 56.948 128.499 C 61.377 133.736, 65 138.271, 65 138.576 C 65 138.882, 64.534 140.002, 63.965 141.066 C 62.123 144.507, 60.864 144.134, 38.289 133.474 C 28.129 128.676, 28.887 129.638, 22.953 114 C 12.890 87.476, 12.444 86.509, 10.109 86.170 C 7.901 85.849, 7.856 86.006, 8.541 91.670 M 187.041 88.250 C 186.537 89.487, 184.037 95.900, 181.485 102.500 C 178.933 109.100, 175.601 117.650, 174.081 121.500 L 171.317 128.500 162.377 133 C 149.514 139.475, 141.284 143, 139.032 143 C 137.363 143, 135 140.408, 135 138.576 C 135 138.271, 138.623 133.736, 143.052 128.499 C 147.481 123.262, 150.829 118.532, 150.493 117.989 C 148.958 115.504, 145.254 117.946, 130.718 131.025 C 115.207 144.983, 115.125 145.078, 113.908 150.775 C 112.193 158.800, 112.166 175.708, 113.861 179.726 C 115.485 183.574, 120.250 184.999, 124.279 182.840 C 126.775 181.503, 134 173.488, 134 172.056 C 134 171.284, 142.361 164.898, 163.290 149.682 C 182.663 135.598, 180.497 138.744, 185.968 116.736 C 188.598 106.156, 191.064 94.912, 191.447 91.750 C 192.100 86.359, 192.013 86, 190.051 86 C 188.818 86, 187.581 86.925, 187.041 88.250" stroke="none" fill="#e9e7d1" fill-rule="evenodd"/><path d="M 42.045 17.750 C 40.218 21.686, 39.589 31.806, 40.876 36.559 C 42.529 42.667, 47.518 49.482, 52.833 52.893 C 57.432 55.844, 67.401 58.933, 68.566 57.768 C 69.290 57.043, 65.552 49.541, 62.317 45.227 C 59.268 41.161, 59.608 38.605, 63.253 38.184 C 65.667 37.905, 66.488 38.663, 70.216 44.608 L 74.442 51.349 75.254 47.441 C 76.205 42.861, 74.866 35.618, 72.045 30.089 C 67.788 21.743, 56.810 15, 47.482 15 C 43.919 15, 43.138 15.395, 42.045 17.750 M 144.763 18.971 C 132.248 21.241, 121.893 26.928, 113.481 36.152 C 104.055 46.488, 98.966 59.693, 99.088 73.500 C 99.179 83.854, 99.642 83.851, 108.227 73.436 C 116.259 63.690, 130.138 51.682, 132.770 52.201 C 133.604 52.366, 134.784 53.325, 135.393 54.334 C 136.337 55.897, 135.836 56.702, 132 59.786 C 124.901 65.493, 114.880 75.878, 109.173 83.442 C 102.922 91.727, 103.028 91.873, 115.962 92.711 C 127.133 93.434, 135.342 91.914, 144.528 87.420 C 157.319 81.161, 167.276 69.974, 172.084 56.457 C 174.774 48.898, 175.653 33.583, 173.805 26.503 C 172.637 22.029, 172.106 21.377, 168.740 20.275 C 163.688 18.622, 150.609 17.911, 144.763 18.971 M 50 122.378 C 50 122.585, 50.788 123.373, 51.750 124.128 C 53.336 125.371, 53.371 125.336, 52.128 123.750 C 50.821 122.084, 50 121.555, 50 122.378 M 147.872 123.750 C 146.629 125.336, 146.664 125.371, 148.250 124.128 C 149.213 123.373, 150 122.585, 150 122.378 C 150 121.555, 149.179 122.084, 147.872 123.750 M 63.500 125 C 64.495 126.100, 65.535 127, 65.810 127 C 66.085 127, 65.495 126.100, 64.500 125 C 63.505 123.900, 62.465 123, 62.190 123 C 61.915 123, 62.505 123.900, 63.500 125 M 135.405 125.250 L 133.500 127.500 135.750 125.595 C 136.988 124.547, 138 123.535, 138 123.345 C 138 122.545, 137.195 123.136, 135.405 125.250 M 57.500 131 C 58.495 132.100, 59.535 133, 59.810 133 C 60.085 133, 59.495 132.100, 58.500 131 C 57.505 129.900, 56.465 129, 56.190 129 C 55.915 129, 56.505 129.900, 57.500 131 M 141.405 131.250 L 139.500 133.500 141.750 131.595 C 143.864 129.805, 144.455 129, 143.655 129 C 143.465 129, 142.453 130.012, 141.405 131.250 M 75.500 136 C 77.648 138.200, 79.631 140, 79.906 140 C 80.181 140, 78.648 138.200, 76.500 136 C 74.352 133.800, 72.369 132, 72.094 132 C 71.819 132, 73.352 133.800, 75.500 136 M 123.453 136.250 L 119.500 140.500 123.750 136.547 C 127.702 132.871, 128.460 132, 127.703 132 C 127.540 132, 125.627 133.912, 123.453 136.250 M 19.500 138 C 20.495 139.100, 21.535 140, 21.810 140 C 22.085 140, 21.495 139.100, 20.500 138 C 19.505 136.900, 18.465 136, 18.190 136 C 17.915 136, 18.505 136.900, 19.500 138 M 179.405 138.250 L 177.500 140.500 179.750 138.595 C 181.864 136.805, 182.455 136, 181.655 136 C 181.465 136, 180.453 137.012, 179.405 138.250 M 63.079 138.583 C 63.127 139.748, 63.364 139.985, 63.683 139.188 C 63.972 138.466, 63.936 137.603, 63.604 137.271 C 63.272 136.939, 63.036 137.529, 63.079 138.583 M 136.079 138.583 C 136.127 139.748, 136.364 139.985, 136.683 139.188 C 136.972 138.466, 136.936 137.603, 136.604 137.271 C 136.272 136.939, 136.036 137.529, 136.079 138.583 M 88.232 163 C 88.232 164.925, 88.438 165.713, 88.689 164.750 C 88.941 163.787, 88.941 162.213, 88.689 161.250 C 88.438 160.287, 88.232 161.075, 88.232 163 M 111.158 162 C 111.158 163.375, 111.385 163.938, 111.662 163.250 C 111.940 162.563, 111.940 161.438, 111.662 160.750 C 111.385 160.063, 111.158 160.625, 111.158 162 M 58 166.378 C 58 166.585, 58.788 167.373, 59.750 168.128 C 61.336 169.371, 61.371 169.336, 60.128 167.750 C 58.821 166.084, 58 165.555, 58 166.378 M 63 170.378 C 63 170.585, 63.788 171.373, 64.750 172.128 C 66.336 173.371, 66.371 173.336, 65.128 171.750 C 63.821 170.084, 63 169.555, 63 170.378 M 134.872 171.750 C 133.629 173.336, 133.664 173.371, 135.250 172.128 C 136.916 170.821, 137.445 170, 136.622 170 C 136.415 170, 135.627 170.787, 134.872 171.750 M 88.158 173 C 88.158 174.375, 88.385 174.938, 88.662 174.250 C 88.940 173.563, 88.940 172.438, 88.662 171.750 C 88.385 171.063, 88.158 171.625, 88.158 173 M 111.158 173 C 111.158 174.375, 111.385 174.938, 111.662 174.250 C 111.940 173.563, 111.940 172.438, 111.662 171.750 C 111.385 171.063, 111.158 171.625, 111.158 173 M 68 177.378 C 68 177.585, 68.787 178.373, 69.750 179.128 C 71.336 180.371, 71.371 180.336, 70.128 178.750 C 68.821 177.084, 68 176.555, 68 177.378 M 129.872 178.750 C 128.629 180.336, 128.664 180.371, 130.250 179.128 C 131.916 177.821, 132.445 177, 131.622 177 C 131.415 177, 130.627 177.787, 129.872 178.750" stroke="none" fill="#5ecb66" fill-rule="evenodd"/><path d="M 7.366 86.488 C 7.052 87.306, 7.267 89.668, 7.843 91.738 C 8.861 95.392, 8.875 95.360, 8.311 90.608 C 7.736 85.765, 7.757 85.720, 10.335 86.213 C 11.767 86.487, 12.702 86.326, 12.411 85.856 C 11.538 84.444, 7.979 84.890, 7.366 86.488 M 187.625 85.798 C 187.314 86.300, 188.135 86.506, 189.448 86.255 C 191.266 85.907, 191.945 86.303, 192.300 87.915 C 192.728 89.857, 192.755 89.845, 192.633 87.765 C 192.496 85.434, 188.757 83.966, 187.625 85.798 M 191.158 93 C 191.158 94.375, 191.385 94.938, 191.662 94.250 C 191.940 93.563, 191.940 92.438, 191.662 91.750 C 191.385 91.063, 191.158 91.625, 191.158 93 M 15.644 94.996 C 16 96.369, 17.126 99.294, 18.147 101.496 C 19.168 103.698, 19.712 104.377, 19.356 103.004 C 19 101.631, 17.874 98.706, 16.853 96.504 C 15.832 94.302, 15.288 93.623, 15.644 94.996 M 182.125 98.625 C 180.933 101.741, 180.126 104.459, 180.332 104.665 C 180.538 104.872, 181.683 102.491, 182.875 99.375 C 184.067 96.259, 184.874 93.541, 184.668 93.335 C 184.462 93.128, 183.317 95.509, 182.125 98.625 M 12.079 112.583 C 12.127 113.748, 12.364 113.985, 12.683 113.188 C 12.972 112.466, 12.936 111.603, 12.604 111.271 C 12.272 110.939, 12.036 111.529, 12.079 112.583 M 187.079 112.583 C 187.127 113.748, 187.364 113.985, 187.683 113.188 C 187.972 112.466, 187.936 111.603, 187.604 111.271 C 187.272 110.939, 187.036 111.529, 187.079 112.583 M 23.113 114 C 23.133 114.825, 24.014 117.300, 25.072 119.500 C 26.130 121.700, 26.715 122.404, 26.372 121.065 C 25.434 117.404, 23.073 112.286, 23.113 114 M 174.692 117.692 C 173.750 120.234, 173.144 122.478, 173.345 122.679 C 173.547 122.880, 174.499 120.982, 175.462 118.462 C 176.424 115.941, 177.030 113.697, 176.808 113.475 C 176.586 113.253, 175.634 115.151, 174.692 117.692 M 13.090 115.794 C 12.955 117.731, 16.306 130.593, 16.653 129.470 C 16.817 128.936, 16.103 125.350, 15.066 121.500 C 14.029 117.650, 13.140 115.083, 13.090 115.794 M 184.556 122.056 C 183.606 125.964, 183.018 129.351, 183.250 129.583 C 183.482 129.815, 184.444 126.803, 185.389 122.889 C 186.334 118.975, 186.921 115.588, 186.695 115.361 C 186.468 115.135, 185.505 118.147, 184.556 122.056 M 49.589 116.856 C 49.298 117.326, 50.103 117.512, 51.377 117.268 C 53.214 116.917, 56.108 119.030, 65.347 127.466 C 71.756 133.319, 77 137.897, 77 137.639 C 77 137.382, 71.835 132.408, 65.523 126.586 C 55 116.879, 51.061 114.474, 49.589 116.856 M 134.477 126.586 C 128.165 132.408, 123 137.370, 123 137.613 C 123 137.856, 128.272 133.284, 134.716 127.452 C 143.822 119.212, 146.935 116.946, 148.686 117.280 C 149.925 117.517, 150.702 117.326, 150.411 116.856 C 148.939 114.474, 145 116.879, 134.477 126.586 M 52.876 124.852 C 55.110 127.521, 57.731 130.333, 58.700 131.102 C 59.669 131.871, 58.040 129.688, 55.081 126.250 C 52.121 122.813, 49.501 120, 49.257 120 C 49.013 120, 50.642 122.183, 52.876 124.852 M 144.919 126.250 C 141.960 129.688, 140.331 131.871, 141.300 131.102 C 143.336 129.486, 151.405 120, 150.743 120 C 150.499 120, 147.879 122.813, 144.919 126.250 M 28 126.711 C 28 127.285, 28.788 128.373, 29.750 129.128 C 31.369 130.397, 31.390 130.350, 30.033 128.500 C 29.226 127.400, 28.439 126.313, 28.283 126.083 C 28.127 125.854, 28 126.137, 28 126.711 M 170.100 128.295 C 168.835 130.402, 168.857 130.423, 170.579 128.774 C 171.570 127.824, 172.166 126.832, 171.903 126.569 C 171.640 126.306, 170.829 127.083, 170.100 128.295 M 40 134.500 C 42.475 135.825, 44.950 136.910, 45.500 136.910 C 46.050 136.910, 44.475 135.825, 42 134.500 C 39.525 133.175, 37.050 132.090, 36.500 132.090 C 35.950 132.090, 37.525 133.175, 40 134.500 M 158 134.500 C 155.525 135.825, 153.950 136.910, 154.500 136.910 C 155.050 136.910, 157.525 135.825, 160 134.500 C 162.475 133.175, 164.050 132.090, 163.500 132.090 C 162.950 132.090, 160.475 133.175, 158 134.500 M 61.500 135 C 62.495 136.100, 63.535 137, 63.810 137 C 64.085 137, 63.495 136.100, 62.500 135 C 61.505 133.900, 60.465 133, 60.190 133 C 59.915 133, 60.505 133.900, 61.500 135 M 137.405 135.250 L 135.500 137.500 137.750 135.595 C 139.864 133.805, 140.455 133, 139.655 133 C 139.465 133, 138.453 134.012, 137.405 135.250 M 21.500 139 C 22.495 140.100, 23.535 141, 23.810 141 C 24.085 141, 23.495 140.100, 22.500 139 C 21.505 137.900, 20.465 137, 20.190 137 C 19.915 137, 20.505 137.900, 21.500 139 M 177.405 139.250 L 175.500 141.500 177.750 139.595 C 179.864 137.805, 180.455 137, 179.655 137 C 179.465 137, 178.453 138.012, 177.405 139.250 M 51.441 139.445 C 52.509 140.300, 53.821 141, 54.358 141 C 55.628 141, 55.061 140.538, 52 139.080 C 49.643 137.958, 49.611 137.978, 51.441 139.445 M 63.544 139.863 C 63.166 141.052, 61.799 142.045, 60.202 142.288 L 57.500 142.700 60.215 142.850 C 62.044 142.951, 63.294 142.320, 64.046 140.914 C 64.660 139.767, 64.942 138.608, 64.672 138.339 C 64.403 138.070, 63.895 138.755, 63.544 139.863 M 135.068 138.559 C 134.918 140.908, 137.640 143.185, 140.056 142.731 L 142.500 142.272 139.903 142.136 C 138.285 142.051, 136.897 141.152, 136.220 139.750 C 135.624 138.512, 135.105 137.976, 135.068 138.559 M 147 139.500 C 145.625 140.286, 144.976 140.945, 145.559 140.965 C 146.141 140.984, 147.491 140.339, 148.559 139.532 C 151.028 137.664, 150.239 137.648, 147 139.500 M 82 142.500 C 83.292 143.875, 84.574 145, 84.849 145 C 85.124 145, 84.292 143.875, 83 142.500 C 81.708 141.125, 80.426 140, 80.151 140 C 79.876 140, 80.708 141.125, 82 142.500 M 116.924 142.750 L 114.500 145.500 117.250 143.076 C 119.820 140.810, 120.459 140, 119.674 140 C 119.495 140, 118.258 141.238, 116.924 142.750 M 26 142.364 C 26 142.639, 27.350 143.825, 29 145 C 30.650 146.175, 32 146.911, 32 146.636 C 32 146.361, 30.650 145.175, 29 144 C 27.350 142.825, 26 142.089, 26 142.364 M 170.500 144.588 L 167.500 147.165 170.750 145.015 C 172.537 143.832, 174 142.669, 174 142.432 C 174 141.683, 173.577 141.944, 170.500 144.588 M 33 147.378 C 33 147.585, 33.788 148.373, 34.750 149.128 C 36.336 150.371, 36.371 150.336, 35.128 148.750 C 33.821 147.084, 33 146.555, 33 147.378 M 164.872 148.750 C 163.629 150.336, 163.664 150.371, 165.250 149.128 C 166.916 147.821, 167.445 147, 166.622 147 C 166.415 147, 165.627 147.787, 164.872 148.750 M 37 150.364 C 37 150.639, 38.350 151.825, 40 153 C 41.650 154.175, 43 154.911, 43 154.636 C 43 154.361, 41.650 153.175, 40 152 C 38.350 150.825, 37 150.089, 37 150.364 M 86.079 151.583 C 86.127 152.748, 86.364 152.985, 86.683 152.188 C 86.972 151.466, 86.936 150.603, 86.604 150.271 C 86.272 149.939, 86.036 150.529, 86.079 151.583 M 113.079 151.583 C 113.127 152.748, 113.364 152.985, 113.683 152.188 C 113.972 151.466, 113.936 150.603, 113.604 150.271 C 113.272 149.939, 113.036 150.529, 113.079 151.583 M 159.500 152.588 L 156.500 155.165 159.750 153.015 C 161.537 151.832, 163 150.669, 163 150.432 C 163 149.683, 162.577 149.944, 159.500 152.588 M 44 155.378 C 44 155.585, 44.788 156.373, 45.750 157.128 C 47.336 158.371, 47.371 158.336, 46.128 156.750 C 44.821 155.084, 44 154.555, 44 155.378 M 87.272 159 C 87.272 161.475, 87.467 162.488, 87.706 161.250 C 87.944 160.012, 87.944 157.988, 87.706 156.750 C 87.467 155.512, 87.272 156.525, 87.272 159 M 112.252 158.500 C 112.263 160.700, 112.468 161.482, 112.707 160.238 C 112.946 158.994, 112.937 157.194, 112.687 156.238 C 112.437 155.282, 112.241 156.300, 112.252 158.500 M 153.872 156.750 C 152.629 158.336, 152.664 158.371, 154.250 157.128 C 155.916 155.821, 156.445 155, 155.622 155 C 155.415 155, 154.627 155.787, 153.872 156.750 M 48.243 158.583 C 48.569 159.111, 50.976 161.080, 53.593 162.959 C 56.209 164.838, 58.084 165.944, 57.757 165.417 C 57.431 164.889, 55.024 162.920, 52.407 161.041 C 49.791 159.162, 47.916 158.056, 48.243 158.583 M 147.500 161.080 C 141.567 165.565, 140.769 166.831, 146.332 162.930 C 150.535 159.984, 152.822 157.937, 151.809 158.028 C 151.639 158.043, 149.700 159.417, 147.500 161.080 M 111.252 167.500 C 111.263 169.700, 111.468 170.482, 111.707 169.238 C 111.946 167.994, 111.937 166.194, 111.687 165.238 C 111.437 164.282, 111.241 165.300, 111.252 167.500 M 88.195 168.500 C 88.215 170.150, 88.439 170.704, 88.693 169.731 C 88.947 168.758, 88.930 167.408, 88.656 166.731 C 88.382 166.054, 88.175 166.850, 88.195 168.500 M 60.433 167.891 C 61.146 169.045, 65 171.374, 65 170.650 C 65 170.419, 63.820 169.457, 62.377 168.511 C 60.934 167.566, 60.059 167.287, 60.433 167.891 M 136.500 169.588 L 133.500 172.165 136.750 170.015 C 138.537 168.832, 140 167.669, 140 167.432 C 140 166.683, 139.577 166.944, 136.500 169.588 M 87.195 175.500 C 87.215 177.150, 87.439 177.704, 87.693 176.731 C 87.947 175.758, 87.930 174.408, 87.656 173.731 C 87.382 173.054, 87.175 173.850, 87.195 175.500 M 112.195 175.500 C 112.215 177.150, 112.439 177.704, 112.693 176.731 C 112.947 175.758, 112.930 174.408, 112.656 173.731 C 112.382 173.054, 112.175 173.850, 112.195 175.500 M 69.086 177.618 C 70.414 179.333, 71.701 180.557, 71.947 180.338 C 72.193 180.119, 71.106 178.716, 69.533 177.220 L 66.672 174.500 69.086 177.618 M 130.004 177.496 C 128.714 178.869, 127.848 180.160, 128.079 180.364 C 128.311 180.569, 129.547 179.446, 130.826 177.868 C 133.689 174.338, 133.185 174.110, 130.004 177.496 M 113 179.941 C 113 180.459, 113.445 181.157, 113.989 181.493 C 114.555 181.843, 114.723 181.442, 114.382 180.552 C 113.717 178.820, 113 178.503, 113 179.941 M 82.788 182.825 C 80.516 184.201, 79.544 184.272, 76.788 183.264 C 73.820 182.177, 73.689 182.203, 75.441 183.530 C 78.114 185.554, 81.334 185.370, 84.139 183.033 C 86.975 180.671, 86.473 180.594, 82.788 182.825 M 123.651 183.136 C 122.634 183.727, 120.384 183.939, 118.651 183.607 C 116.395 183.174, 115.926 183.282, 117 183.986 C 119.171 185.409, 122.327 185.220, 124.559 183.532 C 126.828 181.815, 126.311 181.589, 123.651 183.136" stroke="none" fill="#e9e2d1" fill-rule="evenodd"/><path d="M 40.201 7.985 C 38.831 8.573, 36.820 11.299, 35.223 14.736 C 32.979 19.563, 32.543 21.882, 32.543 29 C 32.543 36.101, 32.981 38.441, 35.202 43.218 C 40.912 55.500, 52.281 63.840, 64.799 64.930 L 71.341 65.500 72.616 69.500 C 73.318 71.700, 74.377 75.385, 74.968 77.690 C 76.064 81.953, 78.258 83.606, 81.282 82.445 C 83.937 81.427, 83.973 79.440, 81.507 70.222 C 79.252 61.796, 79.207 61.083, 80.680 56.910 C 83.099 50.054, 83.503 40.242, 81.631 33.801 C 78.478 22.958, 69.212 12.994, 59 9.467 C 53.291 7.495, 43.197 6.700, 40.201 7.985 M 137.361 12.841 C 109.852 20.975, 91.660 44.682, 91.581 72.500 C 91.567 77.450, 92.147 83.848, 92.869 86.717 C 94.070 91.482, 94.018 92.174, 92.266 94.717 C 91.211 96.248, 88.691 100.560, 86.665 104.300 C 82.860 111.326, 82.820 113.949, 86.495 115.360 C 88.664 116.192, 90.943 113.596, 95.776 104.791 L 99.952 97.181 104.726 98.744 C 107.863 99.771, 113.272 100.313, 120.500 100.324 C 129.749 100.339, 132.786 99.918, 139.578 97.682 C 149.811 94.312, 157.864 89.091, 165.553 80.842 C 172.938 72.919, 176.090 67.677, 179.653 57.390 C 181.989 50.647, 182.386 47.900, 182.382 38.500 C 182.378 30.894, 181.838 25.742, 180.632 21.801 C 178.930 16.239, 178.750 16.049, 173.194 13.900 C 165.167 10.797, 146.174 10.236, 137.361 12.841 M 42.045 17.750 C 40.218 21.686, 39.589 31.806, 40.876 36.559 C 42.529 42.667, 47.518 49.482, 52.833 52.893 C 57.432 55.844, 67.401 58.933, 68.566 57.768 C 69.290 57.043, 65.552 49.541, 62.317 45.227 C 59.268 41.161, 59.608 38.605, 63.253 38.184 C 65.667 37.905, 66.488 38.663, 70.216 44.608 L 74.442 51.349 75.254 47.441 C 76.205 42.861, 74.866 35.618, 72.045 30.089 C 67.788 21.743, 56.810 15, 47.482 15 C 43.919 15, 43.138 15.395, 42.045 17.750 M 144.763 18.971 C 132.248 21.241, 121.893 26.928, 113.481 36.152 C 104.055 46.488, 98.966 59.693, 99.088 73.500 C 99.179 83.854, 99.642 83.851, 108.227 73.436 C 116.259 63.690, 130.138 51.682, 132.770 52.201 C 133.604 52.366, 134.784 53.325, 135.393 54.334 C 136.337 55.897, 135.836 56.702, 132 59.786 C 124.901 65.493, 114.880 75.878, 109.173 83.442 C 102.922 91.727, 103.028 91.873, 115.962 92.711 C 127.133 93.434, 135.342 91.914, 144.528 87.420 C 157.319 81.161, 167.276 69.974, 172.084 56.457 C 174.774 48.898, 175.653 33.583, 173.805 26.503 C 172.637 22.029, 172.106 21.377, 168.740 20.275 C 163.688 18.622, 150.609 17.911, 144.763 18.971 M 6.255 78.142 C 0.993 79.622, -0.381 82.774, 0.311 91.789 C 0.971 100.379, 9.030 134.223, 11.599 139.191 C 13.687 143.230, 13.748 143.281, 36.653 160.019 C 47.187 167.718, 56.701 175.025, 57.794 176.258 C 67.284 186.959, 70.057 189.549, 73.817 191.227 C 82.442 195.075, 91.304 190.623, 94.564 180.806 C 95.931 176.693, 96.155 173.362, 95.724 163.603 C 94.920 145.409, 93.752 142.581, 82.677 132.023 C 66.247 116.359, 57.633 109.078, 54.793 108.455 C 51.394 107.708, 45.832 109.424, 43.578 111.914 C 41.116 114.634, 40.498 120.288, 42.274 123.847 L 43.781 126.867 39.407 124.743 C 35.772 122.977, 34.776 121.848, 33.510 118.059 C 32.672 115.552, 29.164 106.339, 25.714 97.587 C 19.267 81.228, 17.587 78.793, 12 77.713 C 10.625 77.447, 8.040 77.640, 6.255 78.142 M 186.643 78.053 C 185.071 78.510, 183.007 79.588, 182.057 80.448 C 181.107 81.309, 176.769 91.199, 172.419 102.426 C 164.520 122.812, 164.504 122.843, 160.364 124.854 L 156.219 126.867 157.726 123.847 C 159.502 120.288, 158.884 114.634, 156.422 111.914 C 154.177 109.433, 148.610 107.707, 145.242 108.447 C 142.318 109.089, 133.599 116.428, 117.819 131.529 C 106.185 142.664, 105.086 145.266, 104.276 163.603 C 103.845 173.362, 104.069 176.693, 105.436 180.806 C 108.696 190.623, 117.558 195.075, 126.183 191.227 C 129.946 189.548, 132.684 186.990, 142.222 176.242 C 143.324 175, 152.121 168.259, 161.771 161.261 C 171.420 154.264, 181.281 146.730, 183.683 144.519 C 188.882 139.734, 190.285 136.054, 195.511 113.500 C 199.467 96.424, 200.657 87.755, 199.615 83.602 C 198.512 79.207, 192.101 76.464, 186.643 78.053 M 7.310 86.635 C 6.604 88.473, 12.791 118.643, 16.195 129.967 L 18.413 137.343 35.957 150.320 C 63.233 170.497, 63.971 171.097, 67.103 175.650 C 75.359 187.649, 84.968 188.177, 88.067 176.803 C 89.401 171.903, 88.818 158.217, 86.946 150.500 C 85.522 144.631, 83.979 142.857, 66.861 127.407 C 57.551 119.005, 53.534 116, 51.611 116 C 46.830 116, 48.245 120.131, 56.068 129.008 C 63.188 137.089, 64.689 141.063, 60.893 141.786 C 60.009 141.954, 52.643 139.034, 44.525 135.296 C 32.866 129.928, 29.571 127.975, 28.844 126 C 28.337 124.625, 24.506 114.838, 20.331 104.250 C 13.411 86.702, 12.527 85, 10.338 85 C 9.018 85, 7.655 85.736, 7.310 86.635 M 179.669 104.250 C 175.494 114.838, 171.663 124.625, 171.156 126 C 170.429 127.975, 167.134 129.928, 155.475 135.296 C 147.357 139.034, 139.991 141.954, 139.107 141.786 C 135.311 141.063, 136.812 137.089, 143.932 129.008 C 151.755 120.131, 153.170 116, 148.389 116 C 146.466 116, 142.449 119.005, 133.139 127.407 C 116.021 142.857, 114.478 144.631, 113.054 150.500 C 111.182 158.217, 110.599 171.903, 111.933 176.803 C 115.077 188.344, 123.902 187.816, 132.968 175.544 C 135.428 172.214, 140.832 167.399, 147.678 162.437 C 153.630 158.124, 163.703 150.686, 170.062 145.909 L 181.623 137.223 183.823 129.906 C 187.213 118.631, 193.394 88.468, 192.690 86.635 C 192.345 85.736, 190.982 85, 189.662 85 C 187.473 85, 186.589 86.702, 179.669 104.250" stroke="none" fill="#345055" fill-rule="evenodd"/></svg>