<svg xmlns="http://www.w3.org/2000/svg" width="400" height="400" viewBox="0 0 180 200" version="1.1"><path d="M 27.500 70.061 C 19.287 72.472, 13 81.704, 13 91.356 C 13 107.043, 28.822 118.280, 42.728 112.469 C 52.453 108.406, 57.410 101.326, 57.410 91.500 C 57.410 75.912, 42.929 65.532, 27.500 70.061 M 135.500 70.879 C 120.486 77.766, 117.450 97.184, 129.701 107.968 C 138.900 116.065, 150.099 116.066, 159.297 107.970 C 167.768 100.514, 169.412 89.054, 163.406 79.339 C 157.798 70.269, 145.173 66.441, 135.500 70.879 M 84.962 93.976 C 75.273 95.729, 65.611 103.824, 62.575 112.734 C 57.666 127.141, 63.979 142.382, 77.642 149.108 C 84.439 152.454, 95.562 152.459, 102 149.119 C 120.697 139.419, 124.568 116.190, 109.873 101.876 C 103.422 95.593, 93.471 92.437, 84.962 93.976 M 14.478 119.871 C 5.981 123.731, 0 132.774, 0 141.759 C 0 150.063, -0.240 150, 31.556 150 C 46.467 150, 58.946 149.721, 59.287 149.379 C 59.629 149.038, 58.792 147.125, 57.428 145.129 C 54.155 140.340, 51 129.975, 51 124.011 C 51 118.029, 50.987 118.025, 32.500 118.036 C 21.088 118.042, 17.756 118.382, 14.478 119.871 M 130.533 118.910 C 128.937 119.533, 128.533 120.730, 128.395 125.245 C 128.192 131.836, 125.812 139.525, 122.433 144.503 C 121.095 146.475, 120 148.519, 120 149.044 C 120 149.629, 130.786 150, 147.777 150 C 180.054 150, 180.007 150.012, 179.990 142.193 C 179.978 136.392, 176.472 128.664, 171.872 124.301 C 166.109 118.833, 162.721 117.992, 146.782 118.070 C 138.927 118.109, 131.615 118.487, 130.533 118.910 M 62.300 157.829 C 48.019 162.854, 38.233 175.016, 37.233 188.982 C 36.808 194.921, 37.009 196.009, 38.875 197.875 C 40.984 199.984, 41.373 200, 89.826 200 C 138.651 200, 138.651 200, 140.968 197.534 C 143.017 195.353, 143.221 194.379, 142.742 189.093 C 141.628 176.810, 134.037 166.178, 121.832 159.806 C 115.500 156.500, 115.500 156.500, 91.500 156.250 C 70.392 156.030, 66.873 156.220, 62.300 157.829" stroke="none" fill="#04235b" fill-rule="evenodd"/><path d="M 86.478 2.250 C 86.170 3.488, 86.049 9.402, 86.209 15.394 C 86.452 24.480, 86.790 26.470, 88.250 27.388 C 89.524 28.190, 90.476 28.190, 91.750 27.388 C 93.226 26.459, 93.544 24.446, 93.783 14.535 C 94.086 1.924, 93.505 0, 89.397 0 C 87.783 0, 86.861 0.711, 86.478 2.250 M 61.750 13.080 C 59.158 14.590, 59.595 17.176, 63.569 23.848 C 67.707 30.794, 69.273 31.727, 72.084 28.916 C 74.122 26.878, 74.122 26.878, 70.944 21.189 C 67.696 15.373, 65.155 11.976, 64.095 12.030 C 63.768 12.047, 62.712 12.519, 61.750 13.080 M 113.772 13.750 C 112.926 14.713, 110.803 18.060, 109.056 21.189 C 105.878 26.878, 105.878 26.878, 107.916 28.916 C 110.783 31.783, 112.508 30.704, 116.514 23.542 C 120.501 16.412, 120.785 14.490, 118.066 13.035 C 115.566 11.697, 115.578 11.695, 113.772 13.750 M 30.632 25.115 C 29.817 26.278, 29.380 27.827, 29.660 28.558 C 30.114 29.740, 47.087 39.990, 51.063 41.484 C 53.086 42.243, 56.237 38.782, 55.432 36.684 C 54.908 35.317, 34.464 23, 32.719 23 C 32.386 23, 31.447 23.952, 30.632 25.115 M 140.500 27.156 C 128.309 34.256, 126 35.965, 126 37.892 C 126 38.917, 126.710 40.345, 127.579 41.065 C 128.913 42.173, 130.112 41.856, 135.329 39.019 C 145.886 33.277, 152 29.084, 152 27.584 C 152 26.093, 149.373 22.970, 148.179 23.040 C 147.805 23.062, 144.350 24.914, 140.500 27.156 M 68 34.066 C 64.767 35.422, 60.203 39.770, 58.411 43.200 C 56.425 47.001, 56.656 54.407, 58.897 58.790 C 61.308 63.507, 87.307 89.001, 89.703 88.998 C 91.930 88.995, 120.049 61.140, 121.705 57.297 C 124.770 50.182, 122.361 41.929, 115.657 36.571 C 112.279 33.872, 111.049 33.500, 105.489 33.500 C 99.973 33.500, 98.577 33.913, 94.582 36.729 C 90 39.959, 90 39.959, 85.540 36.815 C 80.641 33.362, 72.661 32.112, 68 34.066 M 31.223 53.557 C 28.588 55.402, 28.465 56.322, 30.571 58.429 C 32.533 60.391, 47.912 60.688, 49.800 58.800 C 51.602 56.998, 51.246 54.202, 49.066 53.035 C 45.992 51.390, 33.807 51.746, 31.223 53.557 M 133.223 53.557 C 130.588 55.402, 130.465 56.322, 132.571 58.429 C 134.533 60.391, 149.912 60.688, 151.800 58.800 C 153.602 56.998, 153.246 54.202, 151.066 53.035 C 147.992 51.390, 135.807 51.746, 133.223 53.557" stroke="none" fill="#59c3a2" fill-rule="evenodd"/></svg>