<?xml version="1.0" encoding="UTF-8"?>
<!DOCTYPE svg  PUBLIC '-//W3C//DTD SVG 20010904//EN'  'http://www.w3.org/TR/2001/REC-SVG-20010904/DTD/svg10.dtd'>
<svg width="100" height="100" version="1.0" viewBox="0 0 512 512" xmlns="http://www.w3.org/2000/svg">
<g transform="translate(0 512) scale(.1 -.1)" fill="#428821">
<path d="m652 4929c-272-35-507-241-577-505-9-32-18-96-22-140-5-74-4-83 16-103s28-21 311-21h290v-1712c0-1889-3-1783 63-1923 63-130 162-230 293-294s29-61 1820-61c1590 0 1633 0 1708 20 223 57 414 233 485 446 30 92 46 236 29 271l-13 28-298 3-297 2v209 208l233 134c127 74 249 149 269 167 78 70 104 191 65 294-21 54-96 129-150 149-22 8-37 20-37 29 0 43-36 114-79 159-81 83-207 104-309 52-23-12-135-103-250-204-114-100-215-188-224-195-14-11-29-10-90 8-163 48-285 106-352 168-15 15-62 68-102 119-112 139-190 181-311 170-103-10-126-22-815-422-155-89-168-99-168-125 0-19 56-126 161-307 88-153 168-286 176-295 9-10 25-18 35-18 11 0 89 40 174 90l155 89 77-61c311-248 630-355 921-307 101 16 163 42 335 141 89 50 164 93 168 95 5 2 8-75 8-171v-176h-1529c-1377 0-1531-2-1545-16-26-26-18-53 34-119 124-156 156-320 85-441-47-80-111-100-230-69-88 23-152 62-231 140-77 76-123 158-143 253-8 37-11 553-11 1762v1710h1523c1362 0 1525 2 1545 16 34 23 27 49-32 125-143 182-164 357-57 472 44 48 70 57 137 47 117-17 199-57 289-141 78-74 139-186 155-289 10-68 14-1040 4-1040-3 0-24 15-47 33-64 51-105 73-192 103-101 34-254 38-350 10-181-54-321-170-400-331-47-94-65-172-65-275 0-170 62-321 180-439 76-76 148-121 252-159 101-36 268-38 373-5 99 31 189 87 266 164 182 183 230 457 124 699l-25 55-3 605-2 605-28 81c-46 139-131 252-247 329-87 58-177 92-281 105-101 12-3150 12-3247-1zm2998-103c0-3-9-20-20-38-72-123-58-307 35-462l34-56h-1771-1770l6 48c37 258 242 469 491 502 62 8 2995 14 2995 6zm356-1427c194-35 370-201 413-389 15-66 13-187-4-255-21-78-59-147-119-212-62-68-118-107-203-140-59-23-83-27-178-27-98 0-117 3-180 28-89 37-140 72-201 139-92 100-134 210-134 347 1 147 46 258 149 361 125 125 289 179 457 148zm-758-1126c22-16 64-57 92-93 145-182 241-245 491-324 191-59 254-114 246-214-3-41-10-59-33-83-35-38-81-59-127-59-19 0-146 34-283 76-174 54-252 74-263 67-25-16-34-39-27-66 6-24 19-31 149-71 362-114 378-118 444-112 148 13 252 118 253 256v55l83 46c45 26 165 95 266 153 178 102 187 106 244 106s62-2 102-42c66-67 70-161 9-221-22-23-815-487-933-546-131-67-358-67-551-1-134 47-308 148-445 260-67 55-76 68-219 314-81 142-147 258-145 260 31 23 399 226 439 243 80 33 155 31 208-4zm1403-36c38-26 81-84 77-105-2-8-19-19-38-26s-150-78-290-159l-254-147-38 37c-30 29-36 40-26 49 69 65 390 341 413 355 43 27 113 25 156-4zm-2018-486c69-120 127-224 129-231 3-11-35-36-184-123l-46-27-131 228c-73 125-133 230-134 235-2 8 210 134 229 136 5 1 67-97 137-218zm2327-953c0-49-25-134-61-208-44-89-161-206-249-248-136-66-33-62-1683-62h-1498l20 26c75 95 64 324-22 462-13 20-27 43-31 50-6 9 349 12 1758 12h1766v-32z"/>
<path d="m3893 3319c-12-4-24-17-28-28-3-11-26-30-51-42-85-41-134-145-113-239 22-100 82-152 197-174 81-15 99-27 118-73 18-43 8-85-28-120-64-61-168-22-183 69-8 45-42 74-75 63-32-10-41-46-26-104 17-65 57-117 112-144 24-11 44-27 44-34s11-20 25-29c30-19 62-11 77 20 5 13 29 32 53 44 122 59 157 228 68 331-43 51-78 70-150 81-69 12-101 32-119 77-30 71 21 143 101 143 59 0 91-28 110-95 17-57 37-72 76-60 31 10 40 47 25 104-17 65-55 114-109 140-24 12-49 32-55 45-12 27-38 36-69 25z"/>
<path d="m1295 4058c-27-5-86-26-130-48-274-132-385-473-243-744 45-85 156-194 238-234 369-181 794 81 794 488 0 151-55 281-164 390-128 129-310 183-495 148zm218-113c83-22 133-50 199-113 180-171 180-453 0-624-32-31-77-65-100-77-192-98-425-45-554 124-52 69-80 145-86 238-19 299 254 527 541 452z"/>
<path d="m1515 3791c-16-10-68-57-114-104l-84-85-33 14c-71 30-150 7-192-56-20-29-23-45-20-92 4-50 10-64 44-105 22-26 62-65 88-87 45-39 52-41 112-41h64l171 170c93 94 175 179 181 189s10 41 10 68c0 55-28 105-73 132-37 22-117 21-154-3zm117-117c11-24 5-32-143-180-95-95-161-154-174-154-26 0-135 109-135 135 0 48 43 58 88 20 17-14 38-25 48-25 11 1 73 52 139 115 128 122 156 136 177 89z"/>
<path d="m939 2769c-22-22-19-55 9-76 12-10 207-13 897-13 842 0 883 1 898 18 22 24 21 55-1 75-17 16-94 17-900 17-876 0-882 0-903-21z"/>
<path d="m952 2523c-25-10-34-53-17-79l15-24h699c763 0 724-3 724 57-1 54 19 53-722 52-377 0-692-3-699-6z"/>
<path d="m959 2263c-9-2-21-16-28-30-9-21-9-30 4-49l15-24h548c413 0 551 3 560 12 20 20 14 65-10 82-20 14-87 16-548 15-289-1-532-3-541-6z"/>
<path d="m935 1976c-19-28-9-58 25-76 12-6 166-10 422-10 438 0 450 2 456 53 7 58 19 57-454 57h-434l-15-24z"/>
<path d="m935 1716c-18-27-7-69 20-80 9-3 202-6 429-6 356 0 415 2 434 16 24 17 30 62 10 82-9 9-122 12-445 12h-433l-15-24z"/>
<path d="m939 1459c-22-22-19-55 9-76 12-10 138-13 552-13 582 0 573-1 573 55s10 55-575 55c-529 0-538 0-559-21z"/>
<path d="m952 1213c-25-10-34-53-17-79l15-24h693c753 0 730-2 730 55-1 57 22 55-722 54-377 0-692-3-699-6z"/>
</g>
</svg>
