<svg width="100" height="100" viewBox="0 0 100 100" fill="none" xmlns="http://www.w3.org/2000/svg">
<g clip-path="url(#clip0_397_613)">
<path d="M71.4844 0.449219C69.8828 0.996094 68.4375 1.91406 67.4023 3.04688L66.6016 3.90625H64.9805C64.082 3.90625 62.9102 4.04297 62.3828 4.19922C61.1133 4.57031 59.4727 5.72266 58.6328 6.83594L57.9688 7.71484L56.3086 7.83203C55.0195 7.92969 54.4336 8.06641 53.5352 8.53516C52.5195 9.0625 52.3438 9.10156 51.9336 8.86719C50.0195 7.79297 46.6016 7.48047 44.2969 8.20312C40.1562 9.47266 37.5 13.1445 37.5 17.5781C37.5 21.1133 38.9844 23.9258 41.875 25.8008C43.7109 27.0117 45.1953 27.3828 47.8125 27.3047L50 27.2461L50.7422 28.2031C52.2656 30.2148 54.3945 31.25 57.0312 31.25C60.0977 31.25 62.0508 30.1172 64.0625 27.207C64.3555 26.7773 64.3945 26.7773 65.5273 27.0508C68.1445 27.6758 72.4414 27.2852 74.5508 26.2109L75.3125 25.8203L74.4727 34.4336C74.0234 39.1797 73.5547 44.3555 73.418 45.9375C73.2812 47.5195 73.1055 48.9258 73.0273 49.043C72.9492 49.1797 71.9531 48.5547 70.2734 47.2852C67.8516 45.4688 67.5781 45.3125 66.7578 45.3125C66.0742 45.3125 65.7617 45.4297 65.3711 45.8203L64.8438 46.3281L64.8047 50.6055L64.7461 54.8633L58.3984 50.0977C52.2656 45.4883 52.0117 45.3125 51.1523 45.3125C50.4297 45.3125 50.1367 45.4102 49.7461 45.8203L49.2188 46.3281L49.1797 50.5859L49.1211 54.8633L47.2266 53.457L45.332 52.0508L45.3125 44.4336C45.3125 36.875 45.3125 36.8164 44.8438 35.8398C44.1797 34.4141 43.4961 33.6914 42.1484 33.0273L40.957 32.4219H31.0742H21.1914L20.2148 32.8906C18.7891 33.5547 18.0664 34.2383 17.4023 35.5859C16.8359 36.7188 16.7969 36.8945 16.7969 39.1602V41.5234L15.8398 41.7773C14.7266 42.0508 12.8906 43.1055 11.9336 44.0039C10.9375 44.9414 9.80469 46.7969 9.375 48.2031C9.00391 49.3945 8.98438 50.0391 8.98438 61.0547V72.6562H5H1.03516L0.507812 73.1641L0 73.6914V86.3281V98.9648L0.507812 99.4922L1.03516 100H50H98.9648L99.4922 99.4922L100 98.9648V92.6758V86.3867L99.4922 85.8594C98.75 85.1367 97.3438 85.1367 96.6016 85.8594L96.0938 86.3867V91.2305V96.0938H66.7969H37.5V73.7109V51.3281L38.1445 51.7969C49.6094 60.4492 50.293 60.9375 51.2109 60.9375C51.9141 60.9375 52.207 60.8203 52.5977 60.4297L53.125 59.9219L53.1641 55.6445L53.2227 51.3867L59.5703 56.1523C65.7031 60.7617 65.957 60.9375 66.8164 60.9375C67.5391 60.9375 67.832 60.8398 68.2227 60.4297L68.75 59.9219L68.7891 55.6445L68.8477 51.3867L75.1953 56.1523C81.3281 60.7617 81.582 60.9375 82.4414 60.9375C83.1641 60.9375 83.457 60.8398 83.8477 60.4297L84.375 59.9219L84.4141 55.6445L84.4727 51.3867L90.2734 55.7227L96.0742 60.0586L96.0938 65.3516V70.6445L96.6016 71.1719C97.3438 71.8945 98.75 71.8945 99.4922 71.1719L100 70.6445V64.375V58.0859L99.375 57.4805C99.0234 57.168 97.2852 55.8203 95.5078 54.4922C93.7305 53.1641 92.2266 52.0312 92.1289 51.9531C92.0508 51.8945 91.1914 43.3984 90.2344 33.0859C89.2773 22.793 88.4375 13.9844 88.3789 13.5352C88.3008 13.0273 88.0664 12.5391 87.7539 12.2266C87.3047 11.7773 87.1094 11.7188 85.8203 11.7188H84.375V9.88281C84.375 6.17188 82.8125 3.28125 79.7852 1.38672C77.5195 -0.0390625 74.0625 -0.429688 71.4844 0.449219ZM76.3867 4.33594C77.9883 4.86328 79.4922 6.38672 80.0391 7.98828C80.1758 8.33984 80.332 9.33594 80.3906 10.1758L80.5273 11.7188H79.0625C77.7539 11.7188 77.5391 11.7773 77.0898 12.207C76.5234 12.793 76.4648 13.0469 76.1523 16.8555L75.8984 19.7656L75.1172 20.6445C74.1602 21.7383 73.2422 22.3242 71.6602 22.8516C70.0977 23.3789 67.5 23.418 66.0156 22.9102C64.9805 22.5586 64.9805 22.5586 64.6484 21.3672C64.043 19.1211 62.5391 17.3242 60.3711 16.2695C59.5703 15.8789 58.9258 15.7227 57.7344 15.6641C56.2109 15.5859 56.1328 15.6055 55.6055 16.1133C55.1758 16.543 55.0781 16.8359 55.0781 17.5781C55.0781 18.8281 55.6836 19.4531 57.0898 19.6289C59.4336 19.9609 60.7422 21.3086 60.7422 23.4375C60.7422 25.6055 59.1992 27.1484 57.0312 27.1484C54.9219 27.1484 53.5547 25.8398 53.2227 23.4961C53.0469 22.0898 52.4219 21.4844 51.1719 21.4844C50.4297 21.4844 50.1367 21.582 49.7266 21.9922C49.4531 22.2852 49.2188 22.6367 49.2188 22.7734C49.2188 23.3984 46.1523 23.3789 44.8242 22.7539C43.8281 22.2656 42.5781 21.0156 42.0898 20.0195C41.5625 18.9062 41.4648 16.8945 41.8945 15.6055C42.3633 14.2383 43.8672 12.6953 45.1953 12.2461C47.1875 11.5625 49.3164 11.9141 50.957 13.1836C52.1289 14.1211 53.0469 14.1211 54.043 13.2031C54.4531 12.8516 55.0586 12.4023 55.4102 12.2266C56.1133 11.875 57.5781 11.8164 58.5547 12.1094C59.0039 12.2266 59.4336 12.207 59.9219 12.0508C60.5273 11.8555 60.7422 11.6211 61.2305 10.6055C61.9531 9.12109 62.1875 8.86719 63.1055 8.37891C64.4922 7.67578 66.6602 8.02734 67.5977 9.10156C68.1445 9.72656 68.4961 10.6055 68.6523 11.6602C68.8281 13.0664 69.4531 13.6719 70.7031 13.6719C71.4453 13.6719 71.7383 13.5742 72.168 13.1445C72.6758 12.6172 72.6953 12.5391 72.6172 11.0352C72.5195 9.27734 72.1289 8.22266 71.0352 6.79688L70.3516 5.89844L70.7617 5.50781C71.1523 5.13672 72.3633 4.47266 73.0469 4.23828C73.5938 4.04297 75.7227 4.10156 76.3867 4.33594ZM84.8047 19.1406C84.9805 21.0156 85.1367 22.7539 85.1367 22.9883C85.1562 23.4375 85.1367 23.4375 82.4023 23.4375H79.6289L79.7461 22.4023C79.8242 21.8555 79.9609 20.1953 80.0781 18.75C80.2148 17.3047 80.3516 15.9961 80.3906 15.8594C80.4492 15.6836 80.957 15.625 82.4609 15.6641L84.4727 15.7227L84.8047 19.1406ZM85.6445 28.457C85.7031 29.082 85.8008 29.9609 85.8594 30.4102L85.957 31.25H82.4219H78.8867L78.9844 30.4102C79.043 29.9609 79.1406 29.082 79.1992 28.457L79.3164 27.3438H82.4219H85.5273L85.6445 28.457ZM86.3281 35.4297C86.3281 35.5859 86.6016 38.4961 86.9141 41.9141C87.2461 45.332 87.4805 48.1836 87.4609 48.2617C87.4219 48.3398 86.4844 47.7148 85.3516 46.875C83.4961 45.4688 83.2227 45.3125 82.4023 45.3125C81.6797 45.3125 81.3867 45.4102 80.9961 45.8203L80.4688 46.3281L80.4297 50.6055L80.3711 54.8633L78.8086 53.6914C77.9492 53.0469 77.1875 52.4414 77.0898 52.3633C77.0117 52.2852 77.3047 48.4961 77.7344 43.9648C78.1641 39.4336 78.5156 35.5859 78.5156 35.4297C78.5156 35.1953 79.1797 35.1562 82.4219 35.1562C85.6641 35.1562 86.3281 35.1953 86.3281 35.4297ZM40.4883 36.7578C41.3086 37.3047 41.4258 38.1445 41.3672 43.8281L41.3086 49.0039L38.8672 47.168C36.6211 45.4688 36.3477 45.3125 35.5273 45.3125C34.8047 45.3125 34.5117 45.4102 34.1016 45.8203L33.5938 46.3477V59.4922V72.6562H31.0547H28.5156V61.0547C28.5156 50.0391 28.4961 49.3945 28.125 48.2031C27.6953 46.7969 26.5625 44.9414 25.5664 44.0039C24.6094 43.1055 22.7734 42.0508 21.6406 41.7773L20.6641 41.5234L20.7422 39.6289C20.8203 37.4805 21.1133 36.8359 22.1289 36.543C22.4805 36.4258 26.3281 36.3672 31.3477 36.3867C39.1797 36.4258 40 36.4648 40.4883 36.7578ZM21.1914 45.9961C22.1875 46.4844 23.4375 47.7344 23.8867 48.6914C24.5312 50.0195 24.6094 51.5625 24.6094 62.1484V72.6562H18.7305H12.8711L12.9297 61.3672C12.9883 50.8789 13.0273 50.0391 13.3789 49.1211C13.8477 47.8711 15.4297 46.2695 16.6016 45.8398C17.793 45.4102 20.1367 45.4883 21.1914 45.9961ZM33.5938 86.3281V96.0938H31.0547H28.5156V88.7891V81.5039L28.0078 80.9766L27.4805 80.4688H18.75H10.0195L9.49219 80.9766L8.98438 81.5039V88.7891V96.0938H6.44531H3.90625V86.3281V76.5625H18.75H33.5938V86.3281ZM24.6094 90.2344V96.0938H18.75H12.8906V90.2344V84.375H18.75H24.6094V90.2344Z" fill="#428821"/>
<path d="M41.9141 65.3516C41.5039 65.7617 41.4062 66.0547 41.4062 66.7969C41.4062 67.5391 41.5039 67.832 41.9141 68.2422C42.3242 68.6523 42.6172 68.75 43.3594 68.75C44.1016 68.75 44.3945 68.6523 44.8047 68.2422C45.5273 67.5 45.5273 66.0938 44.8047 65.3516C44.3945 64.9414 44.1016 64.8438 43.3594 64.8438C42.6172 64.8438 42.3242 64.9414 41.9141 65.3516Z" fill="#428821"/>
<path d="M49.7266 65.3516L49.2188 65.8789V70.7031V75.5273L49.7266 76.0547L50.2539 76.5625H55.0781H59.9023L60.4297 76.0547L60.9375 75.5273V70.7031V65.8789L60.4297 65.3516L59.9023 64.8438H55.0781H50.2539L49.7266 65.3516ZM57.0312 70.7031V72.6562H55.0781H53.125V70.7031V68.75H55.0781H57.0312V70.7031Z" fill="#428821"/>
<path d="M65.3516 65.3516L64.8438 65.8789V70.7031V75.5273L65.3516 76.0547L65.8789 76.5625H70.7031H75.5273L76.0547 76.0547L76.5625 75.5273V70.7031V65.8789L76.0547 65.3516L75.5273 64.8438H70.7031H65.8789L65.3516 65.3516ZM72.6562 70.7031V72.6562H70.7031H68.75V70.7031V68.75H70.7031H72.6562V70.7031Z" fill="#428821"/>
<path d="M80.9766 65.3516L80.4688 65.8789V70.7031V75.5273L80.9766 76.0547L81.5039 76.5625H86.3281H91.1523L91.6797 76.0547L92.1875 75.5273V70.7031V65.8789L91.6797 65.3516L91.1523 64.8438H86.3281H81.5039L80.9766 65.3516ZM88.2812 70.7031V72.6562H86.3281H84.375V70.7031V68.75H86.3281H88.2812V70.7031Z" fill="#428821"/>
<path d="M41.9141 73.1641C41.5039 73.5742 41.4062 73.8672 41.4062 74.6094C41.4062 75.8984 42.0703 76.5625 43.3594 76.5625C44.1016 76.5625 44.3945 76.4648 44.8047 76.0547C45.2148 75.6445 45.3125 75.3516 45.3125 74.6094C45.3125 73.8672 45.2148 73.5742 44.8047 73.1641C44.3945 72.7539 44.1016 72.6562 43.3594 72.6562C42.6172 72.6562 42.3242 72.7539 41.9141 73.1641Z" fill="#428821"/>
<path d="M96.6016 77.0703C96.1914 77.4805 96.0938 77.7734 96.0938 78.5156C96.0938 79.2578 96.1914 79.5508 96.6016 79.9609C97.0117 80.3711 97.3047 80.4688 98.0469 80.4688C99.3359 80.4688 100 79.8047 100 78.5156C100 77.7734 99.9023 77.4805 99.4922 77.0703C98.75 76.3477 97.3438 76.3477 96.6016 77.0703Z" fill="#428821"/>
<path d="M41.9141 80.9766C41.5039 81.3867 41.4062 81.6797 41.4062 82.4219C41.4062 83.7109 42.0703 84.375 43.3594 84.375C44.1016 84.375 44.3945 84.2773 44.8047 83.8672C45.5273 83.125 45.5273 81.7188 44.8047 80.9766C44.3945 80.5664 44.1016 80.4688 43.3594 80.4688C42.6172 80.4688 42.3242 80.5664 41.9141 80.9766Z" fill="#428821"/>
<path d="M49.7266 80.9766L49.2188 81.5039V86.3281V91.1523L49.7266 91.6797L50.2539 92.1875H55.0781H59.9023L60.4297 91.6797L60.9375 91.1523V86.3281V81.5039L60.4297 80.9766L59.9023 80.4688H55.0781H50.2539L49.7266 80.9766ZM57.0312 86.3281V88.2812H55.0781H53.125V86.3281V84.375H55.0781H57.0312V86.3281Z" fill="#428821"/>
<path d="M65.3516 80.9766L64.8438 81.5039V86.3281V91.1523L65.3516 91.6797L65.8789 92.1875H70.7031H75.5273L76.0547 91.6797L76.5625 91.1523V86.3281V81.5039L76.0547 80.9766L75.5273 80.4688H70.7031H65.8789L65.3516 80.9766ZM72.6562 86.3281V88.2812H70.7031H68.75V86.3281V84.375H70.7031H72.6562V86.3281Z" fill="#428821"/>
<path d="M80.9766 80.9766L80.4688 81.5039V86.3281V91.1523L80.9766 91.6797L81.5039 92.1875H86.3281H91.1523L91.6797 91.6797L92.1875 91.1523V86.3281V81.5039L91.6797 80.9766L91.1523 80.4688H86.3281H81.5039L80.9766 80.9766ZM88.2812 86.3281V88.2812H86.3281H84.375V86.3281V84.375H86.3281H88.2812V86.3281Z" fill="#428821"/>
<path d="M41.9141 88.7891C41.5039 89.1992 41.4062 89.4922 41.4062 90.2344C41.4062 91.5234 42.0703 92.1875 43.3594 92.1875C44.6484 92.1875 45.3125 91.5234 45.3125 90.2344C45.3125 89.4922 45.2148 89.1992 44.8047 88.7891C44.3945 88.3789 44.1016 88.2812 43.3594 88.2812C42.6172 88.2812 42.3242 88.3789 41.9141 88.7891Z" fill="#428821"/>
</g>
<defs>
<clipPath id="clip0_397_613">
<rect width="100" height="100" fill="white"/>
</clipPath>
</defs>
</svg>
