<svg width="100" height="100" viewBox="0 0 100 100" fill="none" xmlns="http://www.w3.org/2000/svg">
<g clip-path="url(#clip0_397_627)">
<path d="M26.0547 0.46875C24.082 1.38672 23.2422 3.04688 23.2422 5.97656V7.79297L21.6406 11.0547L20.0195 14.3164L19.9609 19.6289L19.9024 24.9609L19.043 25.1758C17.9688 25.4492 17.9688 25.4492 17.9688 25.0977C17.9688 24.5117 17.0117 22.6758 16.2891 21.875C14.5508 19.9414 13.2422 19.4727 12.168 20.3906C11.7383 20.7617 11.6211 21.0156 11.6211 21.6797C11.6211 22.4219 11.7188 22.5586 12.7539 23.4766C14.5899 25.0781 14.5703 25.0977 12.0313 25.0977C9.90235 25.0977 9.8047 25.1172 8.37892 25.8203C3.12501 28.418 0.371104 35.7227 2.10939 42.5L2.46095 43.8867L1.60157 44.6289C1.11329 45.0391 0.566416 45.7422 0.371104 46.1719C-0.078115 47.1484 -0.117177 49.3359 0.273448 50.2734C0.644541 51.1719 1.81642 52.4219 2.63673 52.8125L3.30079 53.1445L3.35939 61.875L3.41798 70.6055L4.04298 71.9141C5.48829 74.9609 8.41798 76.7578 11.9531 76.7578H13.2813V79.0039V81.2305L12.4219 81.8164C10.4102 83.2031 8.82814 85.7617 8.39845 88.3203C7.65626 92.7344 9.96095 97.207 13.9453 99.1016C15.3711 99.7852 16.4063 99.9805 18.3789 100C21.3477 100 23.6328 99.0234 25.6836 96.8359C26.3867 96.1133 26.9531 95.4102 26.9531 95.3125C26.9531 95.1758 31.5625 95.1172 39.9024 95.1172H52.8516L53.8086 96.3281C55.7227 98.7109 57.9492 99.8047 61.1524 99.9414C63.3985 100.059 64.668 99.8047 66.4258 98.9258C67.5 98.3789 69.3555 96.7188 69.9219 95.8008L70.332 95.1367L76.5235 95.0781L82.7149 95.0195L83.8281 94.4922C85.1563 93.8672 86.4844 92.5977 87.0703 91.4062C87.3047 90.8984 89.4141 82.1875 91.9336 71.2109L96.4063 51.8945L97.3047 51.6602C98.4571 51.3672 99.1406 50.918 99.6094 50.1367C99.961 49.5703 100 49.1406 100 45.5664C100 42.0117 99.961 41.5039 99.5899 40.4883C98.75 38.2617 97.3047 36.6992 95.1367 35.6836C92.8321 34.5898 89.6094 34.7461 87.4024 36.0547C86.3086 36.6797 84.9219 38.125 84.3164 39.2383C83.418 40.8594 83.2031 42.168 83.2031 45.7031C83.2227 49.8438 83.5352 50.6836 85.4102 51.4648C86.0742 51.7383 86.1328 51.8164 85.9961 52.3047C85.918 52.5977 84.2188 60.0391 82.2266 68.8477L78.5742 84.8633L74.4922 84.9023L70.4102 84.9609L69.7461 83.9648C69.375 83.418 68.5547 82.5781 67.9297 82.0898L66.7969 81.1914V78.9844V76.7578H67.9688C72.0899 76.7578 75.4688 74.2578 76.4844 70.4297C76.6992 69.668 76.7578 67.5586 76.7578 61.2891V53.1445L77.5781 52.6953C78.5742 52.1484 79.6094 50.8594 79.9024 49.7461C80.1953 48.6523 80.0195 46.9336 79.5313 45.957C79.082 45.1172 77.9688 44.0234 77.2266 43.75C76.7774 43.5742 76.7578 43.4766 76.7578 41.7969C76.7578 40.4492 76.8164 40.0391 77.0313 40.0391C77.5 40.0391 78.2617 39.2773 78.3789 38.7305C78.5352 37.9297 78.0664 37.0312 77.3633 36.7383L76.7578 36.4844V34.9414C76.7578 33.7695 76.8164 33.3984 77.0313 33.3984C77.5 33.3984 78.2617 32.6367 78.3789 32.0898C78.5352 31.2695 78.0469 30.293 77.3438 30.0586L76.7578 29.8438V27.3438V24.8438L77.5977 24.3359C80.5078 22.6562 80.918 18.418 78.3985 16.2109C77.0313 15.0195 76.7188 14.9609 71.8164 14.8828C67.7539 14.8242 67.3633 14.7852 67.4805 14.4922C67.9297 13.3594 68.3594 11.0547 68.3594 9.78516C68.3594 6.93359 67.4805 4.76562 65.5274 2.83203C63.6133 0.9375 61.3281 0 58.5938 0C55.918 0 53.5352 0.996094 51.582 2.92969C50.1758 4.31641 49.4531 5.42969 47.4414 9.29688L45.8008 12.4609L44.5703 10.0781L43.3594 7.71484V5.87891C43.3594 3.61328 43.1055 2.75391 42.1485 1.66016C40.7031 0.0195312 40.6055 0 33.3789 0C27.1485 0 27.0313 0.0195312 26.0547 0.46875ZM60.5469 3.84766C64.6875 5.3125 65.8985 9.04297 63.8281 13.9062L63.4375 14.8438H59.0039C53.8086 14.8438 52.9883 15 51.6602 16.2305C50.4492 17.3438 50 18.3789 50 19.9805C50 20.7031 50.1172 21.6016 50.2735 21.9727C50.6445 22.8516 52.0117 24.3164 52.7344 24.6094C53.3008 24.8438 53.3203 24.8828 53.3203 26.1914V27.5195L52.5586 27.2656C51.4063 26.8555 49.0235 26.5234 47.793 26.582L46.6797 26.6602V22.5586V18.457L49.4727 13.1055C51.0156 10.1758 52.6758 7.22656 53.1836 6.5625C54.3164 5.01953 55.8985 3.90625 57.3828 3.59375C58.6133 3.33984 59.2383 3.39844 60.5469 3.84766ZM39.3945 3.94531C39.7656 4.29688 39.8438 4.57031 39.8438 5.50781V6.64062H33.3008H26.7578V5.56641C26.7578 4.66797 26.836 4.39453 27.2461 4.00391L27.7149 3.51562H33.3203C38.8281 3.51562 38.9453 3.51562 39.3945 3.94531ZM41.4063 11.7188L42.1875 13.2812H33.3985C28.5742 13.2812 24.6094 13.2422 24.6094 13.1836C24.6094 13.1445 24.9414 12.4414 25.332 11.6211L26.0547 10.1562H33.3399H40.625L41.4063 11.7188ZM43.1641 22.168V27.5391L42.2266 28.0078C37.7734 30.2539 34.961 34.9023 34.961 39.9219C34.961 40.8984 35.0391 42.0312 35.1367 42.4219L35.3125 43.1641H33.1641C31.2305 43.1641 31.0352 43.125 31.1328 42.8125C31.836 40.5078 31.8945 36.6797 31.2695 34.2773C30.1367 29.9414 27.2266 26.4648 23.7891 25.3125C23.4766 25.2148 23.4375 24.8438 23.4375 20.9961V16.7969H33.3008H43.1641V22.168ZM76.0938 19.0039C76.6992 19.707 76.6992 20.3906 76.0742 20.9961C75.625 21.4648 75.5078 21.4844 72.9102 21.4844C69.5313 21.4844 68.8281 21.6602 68.4375 22.5781C68.1055 23.3594 68.2227 23.9258 68.8086 24.5508C69.1797 24.9609 69.375 25 71.2305 25H73.2422V27.4414V29.8828L65.0977 29.8438L56.9336 29.7852L56.875 27.3828L56.8164 25H58.8672C60.8399 25 60.918 24.9805 61.3086 24.4922C61.8555 23.7891 61.836 22.8125 61.25 22.1289L60.7813 21.582L57.5781 21.5234C54.668 21.4648 54.3555 21.4258 53.9649 21.0352C53.1445 20.293 53.5352 18.9258 54.6875 18.4961C54.8438 18.4375 59.6289 18.3984 65.293 18.418L75.625 18.457L76.0938 19.0039ZM14.9609 29.2969C16.6797 30.1562 16.9141 30.1562 18.418 29.2188C19.2188 28.7305 19.6289 28.6133 20.8399 28.5547C22.0703 28.4766 22.4219 28.5352 23.3203 28.9844C25.2149 29.9219 27.0899 32.3633 27.7344 34.7266C28.3594 37.0703 28.3203 39.8828 27.6367 42.1484L27.3242 43.1641L16.6406 43.125L5.95704 43.0664L5.60548 41.7969C5.0586 39.8047 4.98048 37.832 5.35157 35.9375C6.21095 31.5234 9.00392 28.5156 12.2266 28.5156C13.2227 28.5156 13.6719 28.6328 14.9609 29.2969ZM50.1172 30.293C55.5078 31.2695 59.1992 36.8555 57.9688 42.168L57.7539 43.1641H48.3203H38.9063L38.6914 42.1875C37.207 35.293 43.2227 29.043 50.1172 30.293ZM73.2422 34.9609V36.5234H67.2852C61.7774 36.5234 61.3086 36.5039 61.211 36.1719C61.1133 35.8984 60.5664 34.4922 60.2149 33.6328C60.1367 33.457 61.5039 33.3984 66.6797 33.3984H73.2422V34.9609ZM93.6719 38.9453C94.8242 39.4727 95.9375 40.7031 96.25 41.7773C96.3867 42.1875 96.4844 43.7891 96.4844 45.3906V48.2422H91.5821H86.6797L86.7578 45.1562C86.836 41.9727 86.9336 41.5039 87.9102 40.2734C89.2383 38.5547 91.6406 38.0078 93.6719 38.9453ZM73.2422 41.6016V43.1641H67.3047H61.3672L61.543 42.4219C61.6406 42.0312 61.7188 41.3281 61.7188 40.8594V40.0391H67.4805H73.2422V41.6016ZM75.586 46.9336C76.836 47.5586 76.836 49.0234 75.586 49.668C74.9414 49.9805 72.9297 50 39.707 49.9609L4.53126 49.9023L4.02345 49.4336C3.14454 48.6133 3.4961 47.2461 4.68751 46.8164C4.84376 46.7578 20.7617 46.6992 40.0391 46.6992C67.7149 46.6797 75.1953 46.7383 75.586 46.9336ZM92.6758 52.1875C92.6172 52.4414 90.6446 60.957 88.3008 71.1328C85.1758 84.6484 83.9063 89.7852 83.6133 90.2148C83.3789 90.5273 82.8125 90.9766 82.3633 91.1914C81.5821 91.582 81.1914 91.6016 76.6016 91.6016H71.6797V90.0391V88.4766H75.3125C77.5391 88.4766 79.2578 88.3789 79.7266 88.2422C80.625 87.9688 81.7383 86.8164 81.9922 85.8984C82.0899 85.5469 83.8672 77.7148 85.9571 68.5156L89.7461 51.7578H91.2696C92.7344 51.7578 92.7735 51.7773 92.6758 52.1875ZM73.2031 61.5625C73.1445 68.9844 73.125 69.6875 72.7735 70.3125C72.2656 71.2695 71.3281 72.2266 70.4102 72.7148L69.6289 73.1445L40.332 73.2031C8.12501 73.2617 10.0781 73.3203 8.5547 72.0703C8.16407 71.7383 7.6172 71.0352 7.34376 70.4688L6.83595 69.4531V61.4844V53.5156H40.0391H73.2617L73.2031 61.5625ZM19.9219 78.3594V79.9805H18.3594H16.7969V78.3594V76.7578H18.3594H19.9219V78.3594ZM56.6406 78.9844C56.6406 81.1914 56.6406 81.2109 56.1133 81.5625C55.2539 82.1094 53.75 83.5938 53.3008 84.2969L52.8906 84.9609L39.9805 84.9414H27.0508L26.4453 84.0234C26.1133 83.5156 25.3125 82.6758 24.6485 82.1289L23.4375 81.1719V78.9648V76.7578H40.0391H56.6406V78.9844ZM63.2813 78.3594V79.9805H61.7188H60.1563V78.3594V76.7578H61.7188H63.2813V78.3594ZM21.0742 84.1016C22.5 84.7461 23.8867 86.2109 24.4141 87.6562C25 89.1992 24.9024 91.4648 24.1797 92.8711C23.5742 94.043 22.3047 95.293 21.0938 95.918C20.3516 96.3086 19.9219 96.3867 18.3594 96.3867C16.7774 96.3867 16.3672 96.3086 15.5274 95.918C12.3828 94.3555 10.918 90.5273 12.3242 87.5C13.9453 84.0039 17.6953 82.5391 21.0742 84.1016ZM64.3555 84.0625C65.6641 84.6484 66.9531 85.918 67.5586 87.207C68.2422 88.6328 68.3399 90.7617 67.7735 92.2266C67.2656 93.6133 65.8789 95.1758 64.5703 95.8594C63.6914 96.3086 63.3399 96.3867 61.7188 96.3867C60.1758 96.3867 59.707 96.3086 58.9649 95.9375C57.5391 95.2539 56.5235 94.2383 55.8789 92.9102C55.0391 91.2109 54.9219 89.8438 55.4492 88.1445C56.6016 84.3359 60.7813 82.4219 64.3555 84.0625ZM51.6602 90.0391V91.6016H40.0195H28.3789V90.0391V88.4766H40.0195H51.6602V90.0391Z" fill="#428821"/>
<path d="M56.543 7.07031C56.3281 7.1875 56.0351 7.42188 55.918 7.57812C55.625 7.94922 55.5859 9.0625 55.8594 9.57031C56.1523 10.1367 59.2578 11.7188 60.0586 11.7188C61.0351 11.7188 61.7187 11.0156 61.7187 10C61.7187 9.08203 61.3672 8.71094 59.375 7.63672C57.8711 6.81641 57.2265 6.67969 56.543 7.07031Z" fill="#428821"/>
</g>
<defs>
<clipPath id="clip0_397_627">
<rect width="100" height="100" fill="white"/>
</clipPath>
</defs>
</svg>
