<svg width="100" height="100" viewBox="0 0 100 100" fill="none" xmlns="http://www.w3.org/2000/svg">
<path d="M8.59375 10.5469L3.32031 21.0938V26.1328C3.32031 29.8438 3.39844 31.4258 3.59375 32.0703C3.94531 33.2617 4.94141 34.6875 5.87891 35.3125L6.62109 35.8398L6.64062 51.2109V66.6016H4.98047H3.32031V83.3008V100H50H96.6797V83.3008V66.6016H95.0195H93.3594V51.2109L93.3789 35.8398L94.1211 35.3125C95.0586 34.6875 96.0547 33.2617 96.4062 32.0703C96.6016 31.4258 96.6797 29.8438 96.6797 26.1328V21.0938L91.4062 10.5469L86.1328 0H50H13.8672L8.59375 10.5469ZM16.6602 12.6367C15.2344 17.6758 13.9648 22.1094 13.8477 22.5L13.6523 23.2422H10.2539H6.83594V22.6562C6.83594 22.2852 8.51562 18.7109 11.4648 12.793L16.1133 3.51562H17.6953H19.2773L16.6602 12.6367ZM26.1719 3.86719C26.1719 4.19922 23.7695 21.2695 23.5352 22.5977L23.418 23.2422H20.3906C17.5977 23.2422 17.3633 23.2227 17.4609 22.8906C17.5195 22.7148 18.7695 18.3398 20.2344 13.1836C21.6992 8.02734 22.9297 3.75 22.9883 3.65234C23.0273 3.57422 23.7695 3.51562 24.6289 3.51562C25.9961 3.51562 26.1719 3.55469 26.1719 3.86719ZM33.2031 13.3789V23.2422H30.1758C27.3828 23.2422 27.1484 23.2227 27.1484 22.8906C27.1484 22.5586 29.5508 5.48828 29.7852 4.14062L29.9023 3.51562H31.543H33.2031V13.3789ZM43.1641 13.3789V23.2422H39.9414H36.7188V13.3789V3.51562H39.9414H43.1641V13.3789ZM53.3203 13.3789V23.2422H50H46.6797V13.3789V3.51562H50H53.3203V13.3789ZM63.2812 13.3789V23.2422H60.0586H56.8359V13.3789V3.51562H60.0586H63.2812V13.3789ZM70.2148 4.14062C70.4492 5.48828 72.8516 22.5586 72.8516 22.8906C72.8516 23.2227 72.6172 23.2422 69.8242 23.2422H66.7969V13.3789V3.51562H68.457H70.0977L70.2148 4.14062ZM79.7266 12.9883C81.1914 18.1445 82.4414 22.5586 82.5195 22.793L82.6172 23.2422H79.6094H76.582L76.4648 22.5977C76.2305 21.25 73.8281 4.19922 73.8281 3.86719C73.8281 3.53516 73.9844 3.49609 75.4297 3.55469L77.0312 3.61328L79.7266 12.9883ZM88.5352 12.793C91.4844 18.7109 93.1641 22.2852 93.1641 22.6562V23.2422H89.7461H86.3477L86.1523 22.5C86.0352 22.1094 84.7656 17.6758 83.3398 12.6367L80.7227 3.51562H82.3047H83.8867L88.5352 12.793ZM13.2812 28.457C13.2812 30.7031 13.0469 31.4453 12.1094 32.2852C10.8789 33.418 9.35547 33.4766 8.04688 32.5C7.08984 31.7578 6.83594 30.9961 6.83594 28.7109V26.7578H10.0586H13.2812V28.457ZM23.2422 28.6719C23.2422 30.3125 23.1836 30.7227 22.793 31.4453C21.9531 33.0469 20 33.6328 18.457 32.7539C17.1875 32.0312 16.7969 31.1328 16.7969 28.75V26.7578H20.0195H23.2422V28.6719ZM33.2031 28.75C33.2031 31.1328 32.8125 32.0312 31.543 32.7539C30 33.6328 28.0469 33.0469 27.207 31.4453C26.8164 30.7227 26.7578 30.3125 26.7578 28.6719V26.7578H29.9805H33.2031V28.75ZM43.1641 28.7109C43.1641 30.9961 42.9102 31.7578 41.9531 32.5C40.6445 33.4766 39.1211 33.418 37.8906 32.2852C36.9531 31.4453 36.7188 30.7031 36.7188 28.457V26.7578H39.9414H43.1641V28.7109ZM53.2812 28.75C53.1836 30.957 52.9297 31.6602 51.9531 32.4805C50.4492 33.7695 48.0859 33.2227 47.1289 31.3672C46.9141 30.9766 46.7773 30.0781 46.7188 28.75L46.6211 26.7578H50H53.3789L53.2812 28.75ZM63.2812 28.457C63.2812 30.7031 63.0469 31.4453 62.1094 32.2852C60.8789 33.418 59.3555 33.4766 58.0469 32.5C57.0898 31.7578 56.8359 30.9961 56.8359 28.7109V26.7578H60.0586H63.2812V28.457ZM73.2422 28.6719C73.2422 30.3125 73.1836 30.7227 72.793 31.4453C71.9531 33.0469 70 33.6328 68.457 32.7539C67.1875 32.0312 66.7969 31.1328 66.7969 28.75V26.7578H70.0195H73.2422V28.6719ZM83.2031 28.75C83.2031 31.1328 82.8125 32.0312 81.543 32.7539C80 33.6328 78.0469 33.0469 77.207 31.4453C76.8164 30.7227 76.7578 30.3125 76.7578 28.6719V26.7578H79.9805H83.2031V28.75ZM93.1641 28.7109C93.1641 30.9961 92.9102 31.7578 91.9531 32.5C90.6445 33.4766 89.1211 33.418 87.8906 32.2852C86.9531 31.4453 86.7188 30.7031 86.7188 28.457V26.7578H89.9414H93.1641V28.7109ZM15.7031 35.1367C16.6797 36.1523 18.0273 36.6211 20.0195 36.6211C21.9922 36.6211 23.0078 36.2695 24.2773 35.1562L25 34.5312L25.7227 35.1562C27.0117 36.2891 27.9883 36.6211 30.0781 36.6211C32.0898 36.6016 32.8711 36.3477 34.3945 35.1367L35.0977 34.5898L35.5469 35.0781C35.8008 35.332 36.5039 35.8008 37.0898 36.0938C38.0469 36.5625 38.3984 36.6211 40.0391 36.6211C41.6602 36.6016 42.0117 36.543 42.8906 36.0938C43.4375 35.8008 44.1602 35.3516 44.4727 35.0781L45.0586 34.5898L45.4883 35.0391C46.2695 35.8789 48.0273 36.582 49.5312 36.6797C51.2891 36.7969 52.6953 36.3867 54.043 35.3711L55 34.6289L55.6641 35.1758C56.9922 36.2891 57.9297 36.6016 59.9609 36.6016C62.0508 36.6016 63.0469 36.2695 64.3359 35.1562L65.0586 34.5117L65.6836 35.1172C66.7969 36.1914 68.0273 36.6211 70.0195 36.6211C71.9922 36.6211 73.0078 36.2695 74.2773 35.1562L75 34.5312L75.7227 35.1562C77.0117 36.2891 77.9883 36.6211 80.0781 36.6211C82.0898 36.6016 82.8711 36.3477 84.3945 35.1367L85.0977 34.5898L85.5273 35.0391C86.1523 35.6836 87.832 36.5039 88.9258 36.6406L89.8438 36.7773V51.6797V66.6016H88.2812H86.7188V59.9609V53.3203H84.2969H81.875L81.7969 50.2344C81.6992 46.6016 81.4648 45.8789 79.9414 44.5117L78.9648 43.6523L79.5117 42.0508L80.0391 40.4492L78.5547 39.9609C77.7148 39.668 76.9531 39.4531 76.8555 39.4531C76.7383 39.4531 76.3477 40.332 75.9961 41.4062C75.3711 43.3398 75.3516 43.3789 74.4922 43.7695C74.0234 44.0039 73.5742 44.2578 73.5156 44.3555C73.457 44.4531 73.1641 44.3359 72.8711 44.1211L72.3047 43.7109L72.793 42.2656C73.0664 41.4648 73.2422 40.7031 73.1836 40.5664C73.1055 40.3516 70.6836 39.4531 70.1562 39.4531C70.0391 39.4531 69.6484 40.3516 69.2969 41.4258C68.6719 43.3594 68.6328 43.418 67.8125 43.7891C67.3633 44.0039 66.9336 44.2578 66.875 44.3555C66.8164 44.4531 66.5234 44.3555 66.2109 44.1406L65.6445 43.75L66.1523 42.2852C66.4258 41.4648 66.6016 40.7031 66.543 40.5664C66.4453 40.293 63.5547 39.3164 63.3789 39.4922C63.3203 39.5508 62.9883 40.4297 62.6367 41.4648L62.0117 43.3398L60.9375 43.8867C59.7656 44.4922 58.7695 45.7422 58.3984 47.0312C58.3008 47.4219 58.2031 49.0039 58.2031 50.5273V53.3203H55.7617H53.3203V59.9609V66.6016H50.0195H46.7188L46.6406 64.668C46.582 62.9297 46.5039 62.6172 45.8398 61.2695C44.7852 59.1406 42.6953 57.3828 40.6836 56.9336L40.0391 56.7969V55.2148C40.0391 50.5273 36.9922 47.168 32.2852 46.6406C29.8633 46.3672 28.5352 46.6602 27.5781 47.6367L26.875 48.3789L25.9766 47.8125C24.6289 46.9531 23.2227 46.6211 20.9961 46.6016C18.75 46.6016 18.125 46.8359 17.2461 47.9883C16.7383 48.6328 16.6992 48.8672 16.6406 50.7031C16.5625 52.9102 16.8555 54.3555 17.6953 55.7812L18.1641 56.6016L16.7188 56.6797C15.5469 56.7383 15.1758 56.8359 14.6094 57.2656C13.5547 58.0859 13.2812 58.8477 13.2812 61.0742C13.2812 63.125 13.5547 64.3555 14.3359 65.7422L14.8242 66.6016H12.4805H10.1562V51.6797V36.7773L11.0938 36.6406C12.168 36.5039 13.8672 35.6836 14.4727 35.0391C15.0195 34.4531 15.0391 34.4531 15.7031 35.1367ZM64.3945 47.3047C64.8242 47.7148 64.8438 47.8516 64.8438 50.5273V53.3203H63.2812H61.7188V50.7812C61.7188 48.2031 61.9336 47.2461 62.5391 47.0117C63.1445 46.7578 63.9648 46.8945 64.3945 47.3047ZM71.0352 47.3047C71.4648 47.7148 71.4844 47.8516 71.4844 50.5273V53.3203H69.9219H68.3594V50.8984C68.3594 48.3984 68.5156 47.5391 69.082 47.1094C69.5898 46.7383 70.5273 46.8359 71.0352 47.3047ZM77.5391 47.0703C78.125 47.3828 78.3203 48.3594 78.3203 50.8984V53.3203H76.6406H74.9609L75.0391 50.6055C75.0977 48.0469 75.1172 47.8516 75.5664 47.3828C76.0742 46.8555 76.875 46.7188 77.5391 47.0703ZM22.3633 50.2148C25 50.7031 26.5625 52.6758 26.5625 55.5078V56.6992L25.1758 56.5625C23.5352 56.4062 22.7734 56.1328 21.7773 55.2539C20.7031 54.2969 20.1172 52.9492 20.1172 51.3086C20.1172 50 20.1172 50 20.6641 50C20.9766 50 21.7383 50.0977 22.3633 50.2148ZM33.2227 50.3906C34.2188 50.6641 35.5273 51.875 36.0547 53.0078C36.4062 53.75 36.5234 54.3555 36.5234 55.3516V56.6992L35.1172 56.5625C31.9141 56.2695 30.0781 54.2383 30.0781 51.0156V49.9414L31.3086 50.0781C31.9727 50.1367 32.832 50.293 33.2227 50.3906ZM83.2031 61.7188V66.6016H70.0195H56.8359V61.7188V56.8359H70.0195H83.2031V61.7188ZM20.4883 60.6836C22.2266 61.543 23.2031 63.2227 23.2227 65.4102L23.2422 66.6602L21.9141 66.5625C18.7891 66.3281 16.9922 64.5898 16.8359 61.5625L16.7578 60.1562H18.1055C19.1797 60.1562 19.668 60.2734 20.4883 60.6836ZM30.3711 60.625C32.1875 61.4648 33.1836 63.125 33.2031 65.2734V66.6016H32.2656C30.8398 66.6016 29.375 66.0938 28.4961 65.293C27.3828 64.2773 26.9141 63.2617 26.7969 61.5625L26.6992 60.1562H28.0469C29.043 60.1562 29.6484 60.2734 30.3711 60.625ZM40.332 60.625C42.207 61.5039 43.1445 63.0664 43.1641 65.2734V66.6016H42.2266C40.0391 66.6016 38.1445 65.5273 37.3047 63.7695C37.0703 63.2812 36.8359 62.3242 36.7773 61.543L36.6602 60.1562H38.0078C39.0234 60.1562 39.6094 60.2734 40.332 60.625ZM93.1641 83.3008V96.4844H50H6.83594V83.3008V70.1172H50H93.1641V83.3008Z" fill="#428821"/>
<path d="M59.9609 61.7188V63.4766H70.0195H80.0781V61.7188V59.9609H70.0195H59.9609V61.7188Z" fill="#428821"/>
<path d="M65.2343 73.9258L63.3789 75.7617L62.3047 75.3906C60.8984 74.9023 58.164 74.8633 56.9922 75.332C55.1367 76.0547 54.3359 76.8164 52.0703 79.9805L51.1328 81.3086L50.4687 80.5078C49.2968 79.1016 47.0703 77.6953 44.9804 77.0312C44.4531 76.875 43.0468 76.6797 41.8554 76.6211C40.0586 76.5234 39.4922 76.5625 38.7695 76.8359C36.9922 77.5195 36.4062 78.8672 36.6015 81.9531C36.7968 85.4492 37.9101 87.9102 40.332 90.1953C42.832 92.5781 45.0781 93.3594 49.4726 93.3594H52.3047L57.9492 90.5469C61.6992 88.6719 63.8867 87.4609 64.4922 86.9336C65.5468 85.9961 66.5234 84.1797 66.7187 82.7539L66.8359 81.8359H68.4765H70.1172V80.0781V78.3203H68.0273H65.9179L67.7343 76.5039C68.7109 75.5078 69.5312 74.6094 69.5312 74.4922C69.5312 74.3164 67.3633 72.0703 67.1875 72.0703C67.1289 72.0703 66.25 72.9102 65.2343 73.9258ZM61.3086 78.8086C63.4961 79.9414 63.8086 82.9883 61.8554 84.4531C61.0742 85.0391 53.7109 88.7305 53.5742 88.5938C53.5156 88.5352 53.3984 87.8516 53.3203 87.0703C53.2226 86.2891 53.1054 85.5078 53.0273 85.332C52.9492 85.0977 53.5351 84.1211 54.8828 82.2656C56.6797 79.7461 57.4023 78.9648 58.2031 78.6523C58.8086 78.4375 60.7812 78.5156 61.3086 78.8086ZM43.3398 80.293C45.8203 80.8594 48.0078 82.6172 49.082 84.9023C49.5898 86.0156 49.707 86.5234 49.7656 88.0273L49.8437 89.8438H48.4961C43.6132 89.8438 40.0586 86.0352 40.039 80.8008V80.0781H41.2695C41.9336 80.0781 42.8711 80.1758 43.3398 80.293Z" fill="#428821"/>
</svg>
