<?xml version="1.0" encoding="UTF-8"?>
<!DOCTYPE svg  PUBLIC '-//W3C//DTD SVG 20010904//EN'  'http://www.w3.org/TR/2001/REC-SVG-20010904/DTD/svg10.dtd'>
<svg width="100" height="100" version="1.0" viewBox="0 0 200 200" xmlns="http://www.w3.org/2000/svg">
<g transform="translate(0 200) scale(.1 -.1)" fill="#428821">
<path d="m1743 1858c-17-18-76-94-131-168-142-192-134-184-195-176-96 11-433 17-410 7 22-10 162-31 353-54l105-12-4-412-4-413h33 33l-7 368-6 367 61-115c82-155 118-218 130-225 14-9-35 122-103 275-71 159-79 192-50 223 39 43 242 367 230 367-2 0-18-15-35-32z"/>
<path d="m530 1714c0-34 4-53 10-49 6 3 10 28 10 56 0 27-4 49-10 49-5 0-10-25-10-56z"/>
<path d="m320 1672c0-14 69-76 77-69 3 4-9 23-27 42-33 34-50 43-50 27z"/>
<path d="m707 1652c-26-27-35-52-19-52 10 0 72 63 72 73 0 16-28 5-53-21z"/>
<path d="m480 1609c-155-65-120-291 47-306 81-7 153 50 169 134 9 48-20 117-62 150-39 29-112 40-154 22z"/>
<path d="m230 1460c0-5 25-10 55-10s55 5 55 10c0 6-25 10-55 10s-55-4-55-10z"/>
<path d="m740 1460c0-5 25-10 55-10s55 5 55 10c0 6-25 10-55 10s-55-4-55-10z"/>
<path d="m1243 1315c-17-55-34-113-37-128-7-31-8-32-169-82-66-20-117-38-114-41 4-5 218 39 250 51 16 7 17-9 17-239 0-229 1-246 18-246 16 0 17 15 14 238l-4 237 59-55c108-102 133-124 138-119 2 3-39 53-93 110l-99 105 29 115c37 148 31 183-9 54z"/>
<path d="m347 1292c-26-27-35-52-19-52 10 0 72 63 72 73 0 16-28 5-53-21z"/>
<path d="m680 1312c0-14 69-76 77-69 3 4-9 23-27 42-33 34-50 43-50 27z"/>
<path d="m530 1204c0-34 4-53 10-49 6 3 10 28 10 56 0 27-4 49-10 49-5 0-10-25-10-56z"/>
<path d="m317 413c-42-109-79-206-82-216-7-16 15-17 364-17h371l-1 28c0 15-10 110-23 212l-22 185-266 3-265 2-76-197zm576 100c4-38 10-114 13-170l7-103h-301c-166 0-302 4-302 8 0 8 91 281 105 315 7 15 28 17 240 17h232l6-67z"/>
<path d="m426 553c-2-10-7-28-11-40-6-22-3-23 45-23 52 0 53 1 64 53 6 27 6 27-43 27-39 0-51-4-55-17z"/>
<path d="m547 563c-3-5-8-23-12-41l-7-33 54 3 53 3 3 38 3 37h-45c-25 0-47-3-49-7z"/>
<path d="m656 539c-3-17-6-35-6-40s25-9 56-9h55l-3 38c-3 36-4 37-49 40s-47 2-53-29z"/>
<path d="m780 546c0-13-3-31-6-40-5-13 3-16 50-16 53 0 56 1 56 24 0 47-10 56-56 56-40 0-44-2-44-24z"/>
<path d="m387 435-16-45h58c57 0 59 1 65 31 11 57 10 59-43 59h-49l-15-45z"/>
<path d="m520 454c-21-55-15-64 45-64 40 0 55 4 55 14 0 7 3 28 6 45l7 31h-52c-46 0-53-3-61-26z"/>
<path d="m646 449c-11-58-10-59 48-59h54l4 41c2 22 2 42-1 45-2 2-26 4-51 4-45 0-48-2-54-31z"/>
<path d="m777 473c-4-3-7-24-7-45v-38h58 57l-3 45-4 45h-47c-26 0-51-3-54-7z"/>
<path d="m351 326c-16-66-17-66 48-66h59l11 44c16 66 17 66-48 66h-59l-11-44z"/>
<path d="m496 353c-3-10-8-35-12-55l-6-38h60 61l6 38c3 20 8 45 10 55 3 15-5 17-55 17-47 0-60-3-64-17z"/>
<path d="m637 362c-3-4-7-27-8-52l-4-45h60 60l3 53 3 52h-55c-30 0-57-3-59-8z"/>
<path d="m770 315v-55h60 60v55 55h-60-60v-55z"/>
<path d="m1086 588c-7-31-46-363-46-388 0-20 7-20 371-20 349 0 371 1 364 17-4 10-34 90-66 178-33 88-66 176-73 195l-14 35-266 3-266 2-4-22zm564-180 58-168h-304-304v23c0 12 5 88 12 170l11 147 235-2 234-3 58-167z"/>
<path d="m1140 546c0-13-3-31-6-40-5-13 3-16 51-16h56l-3 38c-3 37-3 37-50 40-45 3-48 2-48-22z"/>
<path d="m1257 563c-4-3-7-21-7-40v-33h55c59 0 63 5 49 58-5 18-13 22-48 22-24 0-46-3-49-7z"/>
<path d="m1374 539c3-17 6-35 6-40s23-9 51-9h52l-7 31c-3 17-6 35-6 40s-23 9-51 9h-51l6-31z"/>
<path d="m1490 553c1-53 10-63 61-63 53 0 57 6 39 54-8 23-15 26-55 26-36 0-45-3-45-17z"/>
<path d="m1130 435v-45h55 55v45 45h-55-55v-45z"/>
<path d="m1260 436v-46h56 55l-3 43-3 42-52 3-53 3v-45z"/>
<path d="m1387 473c-2-5-2-25 0-45l5-38h58 57l-20 90h-48c-26 0-50-3-52-7z"/>
<path d="m1510 466c0-7 3-28 6-45 6-30 8-31 65-31h58l-16 45-15 45h-49c-35 0-49-4-49-14z"/>
<path d="m1127 363c-4-3-7-28-7-55v-48h60 60v55 55h-53c-30 0-57-3-60-7z"/>
<path d="m1262 318 3-53 128-6-6 38c-4 21-7 46-7 56 0 14-10 17-61 17h-60l3-52z"/>
<path d="m1400 346c0-13 3-38 6-55 6-31 7-31 66-31h60l-7 48c-4 26-9 50-12 55-2 4-29 7-59 7-50 0-54-2-54-24z"/>
<path d="m1536 343c21-84 15-78 82-81 34-2 62-1 62 1s-7 27-15 55l-16 52h-60-59l6-27z"/>
<path d="m340 130c0-29 1-30 50-30s50 1 50 30-1 30-50 30-50-1-50-30z"/>
<path d="m760 130c0-30 1-30 55-30s55 0 55 30-1 30-55 30-55 0-55-30z"/>
<path d="m1140 130c0-30 1-30 55-30s55 0 55 30-1 30-55 30-55 0-55-30z"/>
<path d="m1570 130c0-30 1-30 55-30s55 0 55 30-1 30-55 30-55 0-55-30z"/>
</g>
</svg>
