<?xml version="1.0" standalone="no"?>
<!DOCTYPE svg PUBLIC "-//W3C//DTD SVG 20010904//EN"
 "http://www.w3.org/TR/2001/REC-SVG-20010904/DTD/svg10.dtd">
<svg version="1.0" xmlns="http://www.w3.org/2000/svg"
 width="512.000000pt" height="512.000000pt" viewBox="0 0 512.000000 512.000000"
 preserveAspectRatio="xMidYMid meet">
<metadata>
Created by potrace 1.16, written by Peter Selinger 2001-2019
</metadata>
<g transform="translate(0.000000,512.000000) scale(0.100000,-0.100000)"
fill="#000000" stroke="none">
<path d="M3972 4984 c-105 -28 -194 -90 -250 -173 -43 -65 -68 -158 -59 -218
13 -75 -126 -350 -277 -550 -281 -372 -706 -678 -1276 -918 -480 -203 -1152
-367 -1733 -425 -60 -6 -126 -18 -148 -27 -51 -20 -123 -101 -143 -160 -20
-60 -20 -166 0 -226 18 -55 90 -139 133 -157 17 -7 39 -27 50 -45 l19 -33 -44
-6 c-93 -12 -164 -71 -213 -176 -23 -50 -26 -67 -26 -175 0 -116 1 -123 33
-187 18 -37 45 -77 60 -90 16 -13 31 -31 34 -40 9 -22 180 -159 313 -250 165
-113 328 -199 478 -251 16 -6 16 -9 2 -44 -38 -90 -49 -249 -24 -348 29 -119
109 -229 193 -265 103 -45 491 -89 866 -97 314 -6 444 4 670 54 915 201 1847
931 2260 1768 163 331 229 601 230 932 0 336 -70 571 -274 922 -31 52 -71 132
-91 180 -80 191 -170 506 -185 648 -14 137 -67 226 -174 295 -86 55 -168 78
-280 77 -50 0 -115 -7 -144 -15z m277 -231 c136 -68 134 -189 -4 -258 -85 -43
-177 -43 -260 0 -127 65 -140 177 -29 246 90 55 197 60 293 12z m176 -480 c68
-245 154 -457 253 -625 104 -176 176 -384 203 -585 17 -129 7 -402 -21 -538
-65 -325 -221 -657 -457 -974 -127 -170 -409 -448 -595 -587 -454 -339 -963
-547 -1493 -609 -159 -18 -517 -19 -702 -1 -73 7 -135 15 -138 18 -3 3 -3 13
1 22 5 14 24 16 128 16 253 0 610 48 866 116 790 212 1384 704 1765 1464 71
142 143 315 200 480 54 156 135 443 135 476 0 91 -112 138 -180 77 -25 -24
-33 -45 -55 -143 -128 -579 -405 -1099 -788 -1481 -209 -209 -422 -361 -692
-495 -394 -195 -838 -291 -1277 -276 l-58 2 0 43 c0 35 -9 78 -36 167 -3 11
20 23 95 47 276 89 640 313 1021 630 195 162 600 563 758 751 406 482 671 935
772 1316 67 255 66 426 -7 649 -4 14 1 17 40 17 52 0 159 31 202 59 17 11 33
20 37 20 4 1 14 -25 23 -56z m-679 -158 c-21 -229 -150 -484 -374 -737 -376
-426 -1094 -870 -1797 -1112 l-120 -41 -185 0 c-214 0 -307 16 -542 91 l-138
45 -1 59 c-1 33 -2 66 -3 72 -1 9 22 16 64 21 245 29 645 111 915 187 753 215
1318 512 1729 910 179 173 314 343 415 523 18 31 35 57 38 57 3 0 3 -34 -1
-75z m214 -219 c0 -369 -244 -863 -690 -1396 -276 -329 -658 -698 -961 -927
-65 -49 -70 -51 -205 -77 -619 -118 -1105 -94 -1456 71 l-98 46 0 81 c0 45 -4
95 -9 112 l-8 30 137 12 c553 48 1196 248 1739 542 633 341 1118 753 1364
1159 63 105 131 263 153 359 10 39 21 72 26 72 4 0 8 -38 8 -84z m-3646 -2106
c54 -92 -6 -284 -65 -211 -44 54 -48 155 -8 220 24 40 46 38 73 -9z m400 -485
c115 -37 269 -70 401 -85 104 -11 483 -12 600 -1 44 4 81 7 83 5 8 -6 -252
-126 -328 -150 -76 -25 -98 -28 -211 -27 -195 3 -320 40 -519 155 -134 77
-302 196 -295 208 3 6 43 -9 87 -31 45 -23 127 -56 182 -74z m536 -505 c39
-42 55 -92 55 -180 0 -60 -5 -86 -27 -132 -47 -100 -99 -101 -146 0 -22 46
-27 71 -27 132 0 41 6 92 13 112 16 44 63 98 87 98 9 0 30 -14 45 -30z"/>
</g>
</svg>
