<?xml version="1.0" standalone="no"?>
<!DOCTYPE svg PUBLIC "-//W3C//DTD SVG 20010904//EN"
 "http://www.w3.org/TR/2001/REC-SVG-20010904/DTD/svg10.dtd">
<svg version="1.0" xmlns="http://www.w3.org/2000/svg"
 width="512.000000pt" height="512.000000pt" viewBox="0 0 512.000000 512.000000"
 preserveAspectRatio="xMidYMid meet">
<metadata>
Created by potrace 1.16, written by Peter Selinger 2001-2019
</metadata>
<g transform="translate(0.000000,512.000000) scale(0.100000,-0.100000)"
fill="#000000" stroke="none">
<path d="M2426 5109 c-61 -15 -170 -76 -220 -124 l-46 -45 -46 30 c-78 49
-138 65 -244 64 -111 0 -172 -21 -258 -86 -60 -44 -127 -140 -144 -204 l-12
-42 -65 -10 c-86 -15 -175 -60 -234 -119 -96 -96 -133 -194 -124 -336 4 -75
10 -99 41 -161 62 -126 193 -221 324 -235 l55 -6 18 -51 c42 -124 140 -221
267 -265 30 -10 65 -19 78 -19 29 0 84 -66 119 -143 34 -74 44 -180 21 -225
-18 -34 -65 -82 -81 -82 -28 0 -240 -117 -317 -174 -350 -262 -812 -850 -1053
-1341 -202 -412 -218 -656 -50 -760 45 -28 55 -30 144 -29 81 0 111 5 190 32
287 99 703 379 1072 722 l106 99 7 -110 c25 -422 138 -927 265 -1194 99 -207
195 -295 321 -295 108 0 195 67 280 216 148 258 272 777 308 1285 l7 97 115
-105 c315 -287 678 -545 926 -658 136 -62 229 -87 329 -88 97 -2 146 15 192
65 141 151 44 519 -269 1028 -186 302 -396 569 -632 806 -219 218 -336 305
-510 379 -90 38 -109 52 -136 98 -32 54 -25 150 17 239 49 102 77 127 162 149
144 37 254 137 301 273 l17 51 54 6 c143 17 267 109 332 246 58 125 47 295
-27 411 -63 99 -178 174 -297 194 l-65 10 -12 42 c-17 64 -84 160 -144 204
-86 65 -147 86 -258 86 -106 1 -166 -15 -244 -64 l-46 -30 -48 46 c-26 25 -84
64 -130 87 -82 40 -86 41 -200 44 -64 1 -134 -2 -156 -8z m279 -201 c61 -32
118 -87 152 -149 26 -49 56 -69 100 -69 20 0 43 17 87 64 34 35 76 72 94 81
81 40 190 26 264 -35 47 -39 88 -121 88 -177 0 -56 23 -101 56 -109 14 -4 51
-4 82 0 163 18 303 -111 289 -266 -9 -96 -61 -169 -150 -208 -38 -17 -63 -20
-137 -18 -114 4 -128 -7 -140 -109 -8 -80 -24 -114 -77 -165 -104 -100 -251
-93 -358 17 -37 38 -50 45 -82 45 -52 0 -76 -20 -98 -77 -43 -114 -129 -190
-248 -219 -62 -16 -72 -16 -134 0 -121 30 -204 103 -248 219 -22 57 -46 77
-97 77 -31 0 -45 -8 -80 -44 -60 -60 -118 -88 -187 -89 -68 0 -133 26 -179 74
-48 49 -64 84 -72 162 -12 102 -26 113 -140 109 -131 -4 -200 29 -257 125 -53
90 -39 203 35 285 59 66 102 82 207 80 50 0 98 1 108 4 25 8 47 57 47 107 0
56 41 138 88 177 47 39 131 64 189 56 63 -8 101 -31 169 -102 90 -93 122 -89
197 23 46 69 74 96 137 128 58 30 82 35 165 31 62 -2 91 -8 130 -28z m-562
-1370 c8 -13 31 -40 51 -61 24 -24 44 -59 57 -99 26 -79 80 -186 114 -226 91
-109 299 -109 390 0 34 41 88 148 114 227 11 35 31 73 43 85 13 11 38 39 55
60 l32 40 35 -17 35 -16 -34 -66 c-48 -97 -68 -189 -63 -288 6 -97 31 -158 92
-220 43 -44 58 -53 190 -112 89 -39 216 -122 291 -189 l50 -44 -139 -141
c-136 -138 -139 -141 -133 -177 3 -20 14 -45 23 -55 22 -25 76 -34 105 -19 13
7 81 68 150 137 l126 124 49 -53 c116 -124 394 -479 394 -503 0 -6 -50 -60
-111 -120 -116 -115 -139 -147 -139 -190 0 -38 50 -85 91 -85 28 0 49 16 150
117 65 64 120 115 122 112 19 -22 131 -227 187 -341 85 -175 120 -280 127
-379 5 -69 4 -78 -16 -98 -13 -13 -34 -21 -54 -21 -65 0 -207 51 -335 122
l-73 40 76 79 c65 68 75 84 75 115 0 47 -45 94 -91 94 -27 0 -47 -15 -128 -94
l-96 -94 -70 49 c-38 26 -71 52 -73 57 -1 5 4 15 13 22 23 19 20 89 -7 117
-30 32 -90 31 -133 -1 l-32 -25 -119 102 c-65 56 -176 157 -245 224 l-126 123
-6 142 c-12 260 -52 450 -128 604 -49 101 -84 136 -134 136 -24 0 -45 -8 -61
-23 -36 -34 -32 -84 11 -156 46 -75 88 -209 111 -348 14 -86 18 -168 19 -375
0 -146 -4 -309 -8 -362 l-9 -98 -130 0 -130 0 -29 -29 c-39 -40 -39 -82 0
-122 29 -29 31 -29 145 -29 135 0 125 14 97 -141 -90 -489 -244 -869 -351
-869 -67 0 -168 176 -245 428 l-23 72 108 0 c93 0 111 3 134 21 41 33 35 123
-11 145 -10 5 -76 11 -148 14 l-130 5 -22 110 c-12 61 -25 134 -29 163 l-6 52
76 0 c68 0 80 3 101 25 19 18 25 35 25 65 0 30 -6 47 -25 65 -22 23 -32 25
-113 25 l-90 0 -6 58 c-3 31 -9 164 -12 295 l-7 237 102 0 c95 0 104 2 126 25
25 24 33 73 19 110 -12 30 -60 45 -144 45 l-80 0 0 34 c0 89 48 249 110 363
47 88 52 138 18 170 -53 47 -108 35 -155 -34 -98 -146 -156 -378 -170 -681
l-6 -143 -143 -138 c-78 -76 -189 -177 -245 -224 l-102 -85 -32 24 c-42 31
-100 32 -132 2 -27 -26 -32 -98 -8 -118 8 -7 15 -16 15 -21 0 -4 -32 -30 -72
-58 l-72 -51 -97 95 c-81 80 -101 95 -128 95 -46 0 -91 -47 -91 -94 0 -31 10
-47 76 -116 43 -44 75 -82 73 -84 -2 -2 -47 -25 -99 -51 -113 -57 -216 -93
-286 -101 -69 -9 -94 14 -94 84 0 135 133 456 294 711 l28 43 119 -117 c116
-115 119 -118 155 -112 46 8 72 31 80 72 9 48 -11 76 -135 200 -61 60 -111
114 -111 119 0 25 267 367 388 496 l61 65 133 -132 c127 -127 135 -133 174
-133 64 0 106 58 84 116 -6 16 -67 86 -136 155 l-126 126 69 57 c88 74 207
147 302 187 127 53 170 89 221 189 50 98 35 274 -35 414 l-33 66 26 15 c37 20
47 19 65 -7z"/>
<path d="M2427 2469 c-26 -15 -46 -68 -40 -102 11 -55 42 -67 173 -67 131 0
162 12 173 67 7 35 -15 88 -41 102 -27 14 -241 14 -265 0z"/>
<path d="M1311 2114 c-25 -21 -31 -33 -31 -67 0 -39 6 -47 108 -149 98 -98
111 -108 144 -108 42 0 86 33 89 65 4 57 -3 70 -93 162 -128 131 -160 145
-217 97z"/>
<path d="M3705 2121 c-48 -30 -203 -194 -210 -223 -15 -59 26 -108 89 -108 38
0 47 7 148 108 102 102 108 110 108 149 0 34 -6 46 -31 67 -36 31 -63 33 -104
7z"/>
<path d="M2429 1785 c-50 -27 -57 -97 -16 -142 19 -22 29 -23 147 -23 118 0
128 1 147 23 42 46 34 116 -18 142 -38 20 -223 20 -260 0z"/>
</g>
</svg>
