<?xml version="1.0" standalone="no"?>
<!DOCTYPE svg PUBLIC "-//W3C//DTD SVG 20010904//EN"
 "http://www.w3.org/TR/2001/REC-SVG-20010904/DTD/svg10.dtd">
<svg version="1.0" xmlns="http://www.w3.org/2000/svg"
 width="512.000000pt" height="512.000000pt" viewBox="0 0 512.000000 512.000000"
 preserveAspectRatio="xMidYMid meet">
<metadata>
Created by potrace 1.16, written by Peter Selinger 2001-2019
</metadata>
<g transform="translate(0.000000,512.000000) scale(0.100000,-0.100000)"
fill="#000000" stroke="none">
<path d="M1950 5104 c-81 -21 -187 -78 -252 -135 -101 -88 -199 -260 -229
-399 -17 -79 -7 -242 20 -320 98 -284 460 -573 851 -676 120 -32 291 -37 389
-11 204 55 380 226 458 449 35 98 43 262 18 358 -57 218 -233 416 -517 579
-205 117 -385 171 -567 170 -66 0 -139 -6 -171 -15z m400 -233 c163 -55 342
-160 465 -273 77 -70 159 -189 180 -260 20 -68 18 -180 -3 -243 -17 -49 -17
-50 -56 -47 -56 5 -142 39 -217 87 -72 47 -137 109 -341 327 -76 80 -168 169
-205 198 -73 55 -227 135 -280 146 -43 8 -41 18 5 48 75 47 118 57 242 53 97
-3 129 -9 210 -36z m-497 -276 c139 -47 190 -90 532 -446 161 -168 256 -233
429 -293 17 -6 16 -9 -14 -31 -65 -48 -136 -68 -240 -68 -125 1 -223 27 -375
102 -228 112 -398 259 -472 408 -31 63 -37 87 -41 157 -4 75 10 154 35 198 5
10 71 -2 146 -27z"/>
<path d="M3730 3649 c-341 -29 -581 -162 -690 -382 -49 -100 -70 -192 -70
-317 0 -373 224 -612 640 -684 260 -45 556 -20 760 64 157 65 274 169 340 304
49 99 70 192 70 316 0 125 -21 217 -70 317 -110 224 -349 353 -706 383 -131
11 -138 11 -274 -1z m360 -219 c271 -43 433 -175 475 -387 l6 -32 -73 -23
c-53 -16 -97 -22 -163 -22 -106 0 -174 15 -407 89 -239 76 -345 97 -493 97
-71 -1 -142 -7 -172 -15 -66 -18 -67 -10 -14 69 41 61 105 116 178 153 61 30
205 69 298 80 90 11 267 6 365 -9z m-454 -510 c43 -10 156 -44 250 -74 95 -30
209 -62 255 -72 95 -19 289 -23 357 -7 54 14 54 4 3 -73 -46 -69 -113 -123
-202 -163 -233 -104 -615 -104 -848 0 -149 68 -238 174 -265 320 -6 36 -5 37
36 54 118 47 260 52 414 15z"/>
<path d="M1875 3443 c-276 -39 -661 -259 -831 -476 -109 -139 -156 -267 -156
-422 0 -152 50 -290 153 -427 230 -307 648 -330 1099 -60 248 148 407 319 478
514 24 65 27 87 26 203 0 124 -1 134 -35 220 -91 236 -266 396 -481 439 -72
15 -183 19 -253 9z m252 -225 c22 -8 63 -28 89 -43 l48 -28 -64 -22 c-82 -28
-160 -67 -181 -91 -41 -48 -26 -130 30 -158 42 -22 60 -20 132 14 72 33 191
65 212 57 25 -9 50 -128 45 -207 -17 -230 -304 -496 -671 -622 -83 -29 -104
-32 -212 -32 -109 -1 -125 1 -175 25 -30 14 -66 35 -79 46 l-25 20 66 22 c83
28 169 79 186 111 19 38 8 101 -23 127 -37 33 -92 30 -167 -8 -70 -35 -141
-59 -179 -59 -23 0 -28 7 -44 56 -36 114 -18 231 52 347 112 186 430 393 693
452 78 17 208 14 267 -7z"/>
<path d="M1689 2741 c-55 -56 -26 -159 50 -176 71 -15 140 51 126 122 -15 82
-116 113 -176 54z"/>
<path d="M2771 2155 c-85 -19 -232 -92 -308 -154 -102 -84 -182 -211 -213
-341 -20 -82 -16 -249 8 -351 70 -292 281 -620 499 -775 203 -145 438 -168
662 -64 179 84 325 243 370 405 53 188 21 413 -94 653 -228 475 -565 704 -924
627z m261 -216 c124 -41 250 -148 354 -300 249 -361 285 -694 94 -873 l-50
-47 -30 21 c-45 32 -107 109 -144 180 -42 78 -71 178 -120 402 -41 186 -77
302 -126 398 -36 71 -106 174 -139 204 -11 11 -21 23 -21 28 0 16 121 8 182
-13z m-274 -212 c46 -59 101 -173 126 -257 8 -31 31 -130 51 -220 70 -323 128
-464 240 -588 l35 -40 -35 -6 c-47 -9 -149 10 -208 40 -157 78 -298 237 -411
461 -151 302 -147 529 11 688 l55 55 48 -40 c26 -22 66 -64 88 -93z"/>
<path d="M1235 1673 c-194 -43 -385 -162 -573 -358 -165 -171 -261 -327 -303
-495 -17 -68 -21 -103 -17 -189 8 -173 66 -297 199 -430 80 -81 149 -127 251
-169 91 -37 260 -43 377 -14 170 43 340 151 517 327 163 163 260 316 315 496
30 96 32 255 5 344 -62 209 -254 406 -458 470 -65 21 -97 25 -186 24 -59 -1
-116 -3 -127 -6z m263 -223 l33 -12 -67 -45 c-84 -57 -177 -152 -239 -244 -26
-39 -94 -158 -149 -263 -123 -231 -163 -294 -236 -366 -49 -49 -161 -120 -188
-120 -16 0 -69 91 -86 149 -57 194 48 430 293 664 231 219 456 303 639 237z
m253 -214 c136 -200 54 -474 -225 -752 -226 -225 -463 -320 -647 -259 l-51 17
54 36 c134 90 225 211 378 502 112 213 163 291 241 368 59 59 180 134 209 129
8 -1 26 -20 41 -41z"/>
</g>
</svg>
