<?xml version="1.0" standalone="no"?>
<!DOCTYPE svg PUBLIC "-//W3C//DTD SVG 20010904//EN"
 "http://www.w3.org/TR/2001/REC-SVG-20010904/DTD/svg10.dtd">
<svg version="1.0" xmlns="http://www.w3.org/2000/svg"
 width="512.000000pt" height="512.000000pt" viewBox="0 0 512.000000 512.000000"
 preserveAspectRatio="xMidYMid meet">
<metadata>
Created by potrace 1.16, written by Peter Selinger 2001-2019
</metadata>
<g transform="translate(0.000000,512.000000) scale(0.100000,-0.100000)"
fill="#000000" stroke="none">
<path d="M4375 5030 c-500 -114 -1320 -656 -2057 -1358 l-76 -73 18 63 c54
180 69 410 36 538 -39 155 -147 307 -234 330 -76 20 -153 -10 -198 -77 -19
-29 -22 -50 -27 -195 -4 -135 -9 -181 -32 -268 -48 -184 -144 -401 -268 -603
l-54 -87 -41 82 c-88 178 -134 228 -207 228 -37 0 -86 -26 -109 -57 -17 -23
-19 -47 -21 -222 -2 -177 -4 -206 -28 -296 -35 -131 -69 -219 -129 -338 -98
-192 -216 -351 -429 -574 -206 -217 -325 -405 -385 -608 -36 -123 -44 -294
-19 -417 l17 -88 -40 -46 c-72 -81 -87 -124 -87 -244 0 -147 8 -160 252 -402
233 -231 249 -241 388 -242 117 -1 174 24 277 123 41 39 77 68 80 65 12 -12
240 -4 314 11 164 34 376 139 534 266 41 33 136 117 210 186 241 226 388 315
566 343 201 32 402 -103 553 -372 18 -32 46 -67 62 -79 67 -48 157 -45 219 7
51 43 62 77 68 200 16 370 -127 731 -371 935 -34 28 -62 55 -62 60 0 10 108
87 355 255 322 218 531 339 691 403 41 16 168 54 281 85 261 71 356 104 492
174 166 84 206 127 206 222 0 59 -17 97 -60 133 -50 43 -90 48 -204 30 -88
-14 -119 -14 -238 -3 -141 13 -245 9 -355 -14 -38 -7 -60 -8 -56 -2 4 5 48 66
98 135 469 642 708 1175 668 1484 -22 160 -103 264 -242 307 -82 26 -243 26
-356 0z m-170 -302 l34 -33 -63 -47 -63 -46 -57 45 -56 45 67 33 c38 19 76 34
86 34 9 1 33 -14 52 -31z m-309 -189 c35 -28 64 -54 63 -57 0 -4 -26 -28 -58
-54 l-58 -47 -79 60 c-43 34 -80 64 -81 67 -3 9 118 81 136 82 7 0 42 -23 77
-51z m547 -27 l56 -57 -35 -45 c-20 -25 -42 -54 -50 -65 -14 -19 -18 -16 -89
55 l-75 76 62 46 c35 26 65 47 68 48 3 0 31 -26 63 -58z m-873 -155 c25 -17
64 -45 87 -64 l43 -34 -57 -50 c-31 -27 -60 -49 -64 -49 -4 0 -20 11 -36 24
-16 13 -61 46 -100 73 l-72 50 67 46 c36 25 71 43 77 40 5 -4 30 -20 55 -36z
m665 -236 c-26 -34 -49 -61 -50 -61 -1 0 -47 45 -102 100 l-99 99 60 50 61 50
89 -89 89 -88 -48 -61z m-2144 114 c73 -154 56 -371 -51 -667 -61 -169 -240
-510 -363 -692 l-40 -60 -30 115 c-16 63 -31 126 -34 140 -4 19 14 54 77 150
101 155 248 449 296 592 49 149 75 291 77 421 l1 108 20 -23 c10 -13 32 -51
47 -84z m2589 -18 c-19 -50 -60 -137 -64 -137 -2 0 -23 25 -46 55 l-42 54 47
65 48 65 33 -40 c27 -32 31 -44 24 -62z m-1295 -144 l54 -43 -53 -50 c-29 -27
-57 -50 -62 -50 -5 0 -50 30 -99 66 -50 37 -100 71 -112 77 -13 6 -23 14 -23
18 0 4 27 27 61 52 l61 46 59 -37 c33 -20 84 -56 114 -79z m572 -48 c117 -117
114 -102 39 -185 l-38 -43 -119 119 -119 119 58 48 c31 26 61 47 65 47 5 0 56
-47 114 -105z m546 -105 c15 -25 14 -29 -27 -98 l-42 -71 -55 72 c-29 39 -58
77 -62 85 -6 8 8 33 40 73 l48 60 42 -48 c22 -26 48 -59 56 -73z m-1499 3 c33
-20 88 -57 121 -81 l61 -45 -58 -55 -58 -55 -52 41 c-29 22 -88 62 -131 90
l-78 49 57 47 c31 25 61 46 66 46 6 0 38 -17 72 -37z m826 -265 c0 -3 -23 -31
-51 -62 l-51 -56 -131 131 -131 132 58 54 59 55 123 -123 c68 -68 124 -127
124 -131z m425 25 c36 -49 65 -92 65 -98 0 -5 -20 -38 -44 -72 l-44 -63 -72
99 c-40 55 -72 102 -72 106 0 10 86 114 95 115 4 0 36 -39 72 -87z m-1502 3
c78 -45 177 -115 177 -126 0 -3 -24 -29 -53 -58 l-54 -53 -72 54 c-40 30 -102
72 -138 93 l-66 38 54 48 c30 26 59 48 64 48 6 0 45 -20 88 -44z m646 -78 c36
-35 95 -95 133 -134 l67 -70 -52 -58 -52 -59 -142 142 -141 141 55 50 c30 27
57 50 60 50 4 0 36 -28 72 -62z m655 -227 c31 -47 54 -91 52 -98 -3 -7 -24
-38 -47 -68 l-42 -56 -35 53 c-19 29 -57 83 -84 121 l-50 67 53 58 54 58 21
-26 c12 -14 47 -63 78 -109z m-1553 67 c43 -23 104 -61 134 -85 63 -50 64 -47
-15 -113 l-47 -39 -54 41 c-30 22 -91 63 -137 91 l-83 51 48 48 c26 26 54 48
61 48 8 0 50 -19 93 -42z m770 -197 c49 -52 89 -97 89 -101 0 -3 -24 -29 -53
-58 l-52 -51 -145 144 -146 144 55 55 54 55 55 -47 c30 -26 95 -89 143 -141z
m-1899 -166 c43 -115 84 -284 104 -421 19 -137 21 -427 4 -544 -6 -41 -13
-109 -17 -151 -5 -68 -3 -81 18 -118 36 -65 111 -100 183 -87 18 3 67 28 109
55 198 125 451 145 756 59 486 -136 757 -420 811 -850 12 -99 13 -228 2 -228
-5 0 -30 35 -57 77 -69 110 -221 259 -310 305 -181 93 -359 99 -560 19 -155
-63 -277 -149 -492 -349 -238 -221 -368 -309 -553 -374 -92 -32 -100 -33 -245
-32 -141 0 -155 2 -246 32 -162 54 -315 169 -431 326 -193 259 -219 527 -78
811 63 127 144 233 315 415 342 363 526 694 590 1064 8 49 15 109 16 135 l0
46 25 -55 c14 -30 39 -91 56 -135z m2404 102 c29 -39 66 -97 83 -128 l31 -55
-46 -55 c-26 -30 -49 -55 -53 -56 -3 -2 -18 18 -33 45 -15 26 -53 83 -86 127
l-59 80 51 56 c28 31 53 57 56 58 3 0 28 -32 56 -72z m-1518 18 c45 -24 107
-63 137 -87 l55 -43 -56 -56 -57 -57 -68 52 c-61 46 -175 119 -203 130 -12 4
83 106 99 106 5 0 47 -20 93 -45z m727 -155 l139 -141 -56 -55 -55 -56 -145
145 -146 145 52 51 c28 28 56 51 61 51 6 0 74 -63 150 -140z m552 -107 c26
-37 64 -98 84 -137 l37 -70 -45 -53 c-25 -29 -49 -53 -53 -53 -4 0 -28 35 -53
78 -26 42 -66 102 -91 132 l-44 55 56 58 c31 31 57 57 59 57 1 0 24 -30 50
-67z m-1399 -61 c34 -25 62 -49 62 -53 0 -4 -22 -32 -49 -61 -38 -41 -53 -51
-64 -43 -8 6 -46 33 -84 60 -38 28 -79 57 -92 65 l-23 15 37 63 38 62 56 -31
c31 -17 84 -52 119 -77z m603 -73 l141 -141 -56 -57 -56 -57 -145 145 -145
145 52 53 c29 29 56 53 60 53 4 0 71 -63 149 -141z m1919 126 c69 -4 153 -2
188 3 34 5 62 7 62 5 0 -1 -39 -23 -87 -47 -117 -58 -228 -97 -458 -157 -280
-75 -412 -130 -648 -272 -98 -59 -105 -62 -80 -32 28 33 244 276 312 350 41
45 142 90 280 127 74 19 246 39 286 32 11 -1 76 -6 145 -9z m-1360 -242 c27
-38 66 -101 87 -141 l37 -73 -49 -49 c-27 -28 -52 -50 -56 -50 -4 0 -24 29
-44 65 -20 36 -59 95 -86 131 -27 36 -49 68 -49 72 0 12 91 112 101 112 5 0
31 -30 59 -67z m-1462 -15 c26 -17 66 -46 90 -65 l42 -34 -52 -58 -52 -58 -81
61 -82 61 41 62 c23 35 42 63 44 63 2 0 24 -14 50 -32z m675 -126 c64 -66 117
-124 116 -129 -1 -4 -25 -30 -55 -57 l-54 -49 -138 139 -139 138 51 57 51 57
25 -18 c14 -10 78 -72 143 -138z m538 -95 c51 -69 90 -134 113 -188 l15 -36
-52 -51 -53 -52 -36 62 c-20 35 -61 99 -93 142 l-56 79 53 54 c29 29 55 53 58
53 3 0 26 -29 51 -63z m-735 -198 l68 -69 -39 -40 c-63 -65 -79 -60 -214 73
-64 61 -117 115 -119 119 -2 4 20 32 49 63 l52 55 68 -65 c37 -36 98 -97 135
-136z m513 -74 c27 -40 61 -98 76 -129 l28 -57 -23 -24 c-28 -30 -36 -30 -90
-6 -33 15 -59 40 -112 113 l-69 93 56 54 c65 62 62 63 134 -44z m-891 -31 c29
-26 50 -50 45 -54 -4 -3 -33 -12 -63 -19 -30 -7 -93 -31 -139 -52 -46 -22 -86
-39 -88 -39 -2 0 38 47 89 105 51 58 95 105 98 105 3 0 29 -21 58 -46z m-1524
-1590 c104 -103 205 -177 309 -224 l59 -27 -27 -21 c-39 -31 -96 -46 -142 -37
-32 6 -65 34 -221 188 -101 100 -190 195 -199 211 -18 34 -14 126 7 150 11 14
19 6 63 -61 28 -43 96 -123 151 -179z"/>
<path d="M1679 1211 c-60 -61 -24 -151 61 -151 85 0 121 90 61 151 -40 39 -82
39 -122 0z"/>
<path d="M1476 993 c-10 -3 -46 -27 -79 -54 -138 -111 -306 -125 -475 -40 -76
38 -124 40 -157 6 -29 -28 -33 -79 -9 -113 20 -29 134 -86 213 -107 203 -52
398 -12 551 116 44 37 61 57 65 83 9 47 -1 74 -38 97 -33 19 -38 20 -71 12z"/>
</g>
</svg>
