<?xml version="1.0" standalone="no"?>
<!DOCTYPE svg PUBLIC "-//W3C//DTD SVG 20010904//EN"
 "http://www.w3.org/TR/2001/REC-SVG-20010904/DTD/svg10.dtd">
<svg version="1.0" xmlns="http://www.w3.org/2000/svg"
 width="512.000000pt" height="512.000000pt" viewBox="0 0 512.000000 512.000000"
 preserveAspectRatio="xMidYMid meet">
<metadata>
Created by potrace 1.16, written by Peter Selinger 2001-2019
</metadata>
<g transform="translate(0.000000,512.000000) scale(0.100000,-0.100000)"
fill="#000000" stroke="none">
<path d="M373 5054 c-55 -28 -67 -69 -60 -208 10 -216 58 -399 158 -601 32
-66 88 -159 123 -206 83 -110 221 -241 335 -317 l89 -60 -91 -32 c-314 -110
-562 -310 -744 -600 -93 -150 -183 -376 -183 -462 0 -44 4 -54 34 -84 53 -53
98 -48 239 22 147 74 231 102 348 116 123 15 226 1 329 -43 89 -37 132 -36
272 11 149 50 261 114 391 225 l65 55 21 -68 c161 -534 283 -1089 337 -1532
18 -144 27 -600 12 -615 -3 -3 -63 -10 -133 -15 -159 -12 -293 -36 -334 -61
-91 -55 -49 -223 56 -223 21 0 88 8 148 18 138 22 427 23 605 2 326 -39 679
-133 1052 -280 128 -50 145 -53 192 -31 62 29 85 115 49 176 -11 18 -39 40
-68 53 -139 65 -451 173 -696 241 l-57 16 -5 272 c-6 351 -40 622 -133 1057
-34 159 -132 553 -173 691 l-19 67 59 -24 c67 -27 210 -64 250 -64 15 0 59 14
98 30 195 83 428 57 684 -75 115 -59 155 -67 207 -40 35 18 60 62 60 106 0 46
-62 223 -113 325 -195 387 -491 638 -896 760 -8 3 24 30 74 65 262 178 433
403 539 707 57 165 100 442 82 536 -9 49 -50 94 -91 102 -59 11 -92 -4 -178
-84 -158 -145 -334 -239 -493 -260 -45 -6 -101 -6 -162 1 l-92 11 -83 -43
c-200 -101 -367 -279 -488 -519 l-46 -92 -46 92 c-113 233 -290 419 -496 524
l-74 38 -91 -12 c-226 -28 -432 54 -666 267 -69 62 -88 74 -123 78 -26 2 -54
-2 -74 -13z m412 -511 c124 -54 226 -74 373 -72 126 1 131 0 178 -27 69 -40
207 -176 258 -253 85 -128 173 -339 192 -460 6 -39 5 -43 -12 -38 -10 3 -53 9
-94 12 -145 13 -311 65 -474 148 -286 146 -489 384 -586 685 -17 51 -30 96
-30 101 0 6 28 -7 63 -28 34 -20 94 -51 132 -68z m2481 -8 c-134 -401 -430
-672 -869 -796 -61 -17 -297 -52 -304 -45 -6 5 49 191 76 263 81 209 230 398
384 487 39 22 55 24 202 29 140 4 171 8 245 32 81 26 200 81 265 123 17 11 31
18 33 17 2 -2 -13 -51 -32 -110z m-1601 -1092 c49 -8 91 -16 92 -17 6 -5 -108
-189 -153 -247 -134 -174 -303 -300 -476 -354 l-56 -18 -82 27 c-167 55 -368
58 -560 7 -41 -11 -76 -19 -77 -17 -2 1 19 38 46 82 202 327 533 520 946 554
114 9 191 5 320 -17z m1000 1 c351 -55 650 -253 829 -550 20 -32 36 -62 36
-65 0 -4 -33 2 -72 12 -188 50 -387 47 -559 -7 -83 -26 -84 -26 -139 -9 -184
57 -370 200 -503 386 -54 77 -131 208 -125 215 6 5 167 32 223 37 65 6 203 -3
310 -19z m-637 -347 c25 -37 72 -99 104 -138 68 -81 67 -79 154 -379 143 -494
246 -967 300 -1380 9 -69 18 -232 21 -364 l6 -239 -34 6 c-19 4 -74 11 -124
17 -49 6 -103 13 -120 16 l-30 4 0 237 c0 131 -6 292 -13 358 -55 496 -174
1050 -363 1677 l-59 197 37 61 36 61 20 -33 c12 -18 41 -63 65 -101z"/>
<path d="M4310 2718 c-62 -42 -286 -390 -409 -636 -118 -235 -201 -467 -243
-675 -32 -161 -32 -432 0 -561 72 -286 250 -491 497 -573 71 -24 95 -27 220
-27 124 0 149 3 218 26 215 72 385 242 467 467 128 351 56 814 -211 1341 -122
242 -350 600 -404 636 -43 28 -96 29 -135 2z m161 -473 c82 -130 217 -393 267
-520 146 -366 174 -682 82 -914 -95 -242 -342 -372 -572 -301 -224 69 -353
268 -365 562 -8 192 23 363 109 597 56 152 193 422 297 590 l84 133 18 -23 c9
-13 45 -68 80 -124z"/>
</g>
</svg>
