<?xml version="1.0" standalone="no"?>
<!DOCTYPE svg PUBLIC "-//W3C//DTD SVG 20010904//EN"
 "http://www.w3.org/TR/2001/REC-SVG-20010904/DTD/svg10.dtd">
<svg version="1.0" xmlns="http://www.w3.org/2000/svg"
 width="512.000000pt" height="512.000000pt" viewBox="0 0 512.000000 512.000000"
 preserveAspectRatio="xMidYMid meet">
<metadata>
Created by potrace 1.16, written by Peter Selinger 2001-2019
</metadata>
<g transform="translate(0.000000,512.000000) scale(0.100000,-0.100000)"
fill="#000000" stroke="none">
<path d="M3323 5105 c-12 -8 -44 -54 -71 -103 -99 -173 -188 -403 -227 -590
-16 -75 -19 -81 -36 -70 -148 108 -276 172 -420 210 -72 19 -111 22 -264 23
-157 0 -192 -3 -273 -24 -51 -13 -94 -22 -96 -20 -1 2 -28 44 -61 92 -86 130
-193 226 -319 287 -120 58 -188 73 -316 72 -198 -3 -380 -81 -563 -242 -58
-52 -81 -93 -74 -134 7 -43 100 -204 153 -264 24 -28 44 -54 44 -60 0 -5 -19
-15 -43 -22 -129 -38 -295 -182 -376 -324 -50 -89 -107 -244 -116 -321 -10
-77 8 -104 102 -153 43 -22 104 -50 136 -62 l57 -22 -45 -51 c-60 -68 -121
-187 -146 -284 -27 -103 -35 -265 -19 -376 14 -102 34 -133 88 -143 62 -11 64
-15 30 -64 -40 -60 -74 -135 -101 -228 -18 -65 -22 -101 -21 -232 0 -236 18
-273 140 -292 69 -10 304 -6 357 8 l29 7 -8 -49 c-13 -77 -8 -214 10 -284 25
-101 96 -236 170 -322 61 -71 172 -169 223 -196 56 -30 114 -3 236 108 122
112 216 264 253 408 18 72 23 201 11 280 l-8 54 43 -9 c24 -4 117 -8 208 -8
232 1 248 10 271 158 14 91 6 282 -16 367 -20 74 -71 188 -108 240 l-25 35 51
15 c30 9 58 25 68 40 28 38 42 158 36 295 -6 133 -30 231 -78 328 -16 33 -28
61 -27 62 2 1 38 6 81 12 118 16 133 36 146 193 l6 75 50 3 c94 4 205 22 233
36 44 23 54 58 60 211 8 233 -30 360 -159 528 l-21 27 25 -9 c267 -102 470
-326 550 -610 21 -75 22 -88 24 -1036 l3 -960 -48 90 c-96 180 -241 369 -372
485 -58 51 -78 63 -114 67 -37 5 -47 1 -74 -23 -46 -44 -112 -239 -147 -439
-23 -126 -31 -410 -16 -543 48 -413 200 -797 430 -1082 l52 -65 -816 -5 -817
-5 -19 -24 c-39 -48 -37 -104 6 -147 l24 -24 1646 0 1646 0 24 24 c43 43 45
99 6 147 l-19 24 -447 5 -446 5 84 63 c174 128 468 434 488 507 19 69 -29 125
-109 125 -33 0 -43 -7 -97 -67 -210 -234 -356 -366 -547 -494 l-103 -68 -3 27
c-6 44 17 268 39 386 135 714 613 1410 1208 1761 12 7 13 -10 7 -111 -12 -221
-58 -445 -137 -669 -51 -145 -52 -179 -10 -217 54 -48 132 -34 165 30 53 103
141 423 172 627 23 152 27 512 6 562 -13 30 -62 63 -94 63 -23 0 -186 -82
-265 -134 -39 -25 -73 -46 -76 -46 -2 0 4 39 14 88 29 137 58 323 75 476 17
161 20 546 5 701 -21 210 -68 459 -96 501 -17 26 -73 45 -107 37 -53 -13 -259
-251 -399 -461 -40 -61 -75 -109 -77 -107 -3 2 -8 74 -13 159 -21 407 -116
754 -290 1057 -58 102 -77 119 -134 119 -22 0 -50 -7 -62 -15z m151 -515 c102
-292 142 -584 124 -915 -14 -278 -82 -569 -183 -786 l-23 -52 -4 414 c-4 409
-5 415 -30 511 -28 101 -88 239 -138 319 -17 25 -30 56 -30 69 0 39 49 264 76
352 14 45 46 132 71 192 l46 109 28 -55 c15 -30 44 -101 63 -158z m-2134 175
c67 -9 181 -68 245 -127 32 -29 80 -84 107 -123 l49 -70 -33 -28 c-130 -110
-309 -168 -453 -145 -133 20 -285 125 -377 261 -39 57 -39 59 -21 79 29 34
127 93 200 123 64 26 174 45 218 39 11 -1 40 -6 65 -9z m841 -459 c233 -50
369 -226 369 -478 l0 -88 -66 0 c-72 0 -104 12 -104 38 0 23 -52 133 -89 185
-88 128 -263 241 -406 263 -25 3 -42 10 -39 15 3 5 36 25 72 44 77 39 149 45
263 21z m-1051 -227 c68 -15 181 -60 186 -74 7 -18 -41 -139 -81 -205 -19 -32
-63 -84 -97 -116 -157 -145 -360 -170 -594 -73 -53 22 -55 25 -50 54 13 69 97
216 159 279 61 62 173 128 237 139 49 8 196 6 240 -4z m725 -63 c120 -31 227
-108 280 -201 47 -82 81 -241 68 -322 l-6 -33 -79 0 c-296 0 -488 193 -488
489 l0 81 88 0 c48 0 110 -6 137 -14z m2424 -102 c58 -438 12 -986 -126 -1484
l-26 -95 -106 -110 c-229 -236 -394 -463 -527 -724 l-53 -104 -7 39 c-11 58 3
452 21 604 76 638 299 1256 632 1752 78 117 167 228 174 220 4 -4 12 -48 18
-98z m-3069 -626 c-1 -279 -140 -482 -380 -552 -64 -19 -215 -32 -255 -22
l-28 7 6 112 c8 167 50 279 140 376 47 49 139 107 210 130 81 26 94 28 210 30
l97 1 0 -82z m474 62 c252 -64 395 -262 396 -547 0 -81 -1 -83 -26 -89 -39
-10 -191 3 -254 22 -177 52 -302 177 -354 354 -18 59 -33 237 -23 264 9 24
161 22 261 -4z m-520 -786 l46 -7 0 -81 c-1 -229 -98 -410 -269 -500 -89 -47
-174 -66 -293 -66 l-98 0 0 83 c1 310 174 525 459 566 76 11 100 12 155 5z
m516 -16 c25 -6 77 -25 116 -44 179 -84 283 -270 284 -506 l0 -88 -97 0 c-178
0 -302 47 -409 154 -101 101 -159 262 -152 421 3 64 5 70 28 77 31 9 168 1
230 -14z m1138 -642 c194 -258 317 -592 353 -956 18 -190 5 -371 -43 -575
l-21 -90 -53 59 c-217 239 -381 615 -430 990 -28 214 -8 511 47 694 l12 41 41
-46 c23 -25 65 -78 94 -117z m-1437 47 c116 -121 166 -218 184 -359 16 -121
-48 -287 -156 -407 -33 -37 -69 -72 -79 -77 -43 -23 -197 166 -241 297 -48
142 -23 296 72 437 45 68 138 166 156 166 5 0 34 -26 64 -57z"/>
<path d="M4320 1223 c-22 -20 -33 -40 -37 -70 -5 -39 -2 -46 30 -78 74 -74
177 -26 177 81 0 84 -105 125 -170 67z"/>
<path d="M867 175 c-67 -68 -24 -175 70 -175 36 0 50 6 74 29 65 66 20 171
-74 171 -34 0 -50 -6 -70 -25z"/>
</g>
</svg>
