<?xml version="1.0" standalone="no"?>
<!DOCTYPE svg PUBLIC "-//W3C//DTD SVG 20010904//EN"
 "http://www.w3.org/TR/2001/REC-SVG-20010904/DTD/svg10.dtd">
<svg version="1.0" xmlns="http://www.w3.org/2000/svg"
 width="512.000000pt" height="512.000000pt" viewBox="0 0 512.000000 512.000000"
 preserveAspectRatio="xMidYMid meet">
<metadata>
Created by potrace 1.16, written by Peter Selinger 2001-2019
</metadata>
<g transform="translate(0.000000,512.000000) scale(0.100000,-0.100000)"
fill="#000000" stroke="none">
<path d="M1570 5104 c-156 -34 -338 -111 -465 -197 -132 -90 -279 -255 -349
-394 -35 -71 -72 -184 -86 -265 -12 -66 -13 -68 -42 -68 -63 0 -168 -32 -225
-69 -76 -49 -128 -109 -167 -190 -29 -62 -31 -73 -31 -181 0 -134 13 -178 80
-269 54 -74 145 -134 238 -158 l69 -18 -6 -90 c-3 -49 -24 -522 -47 -1050
l-41 -960 -68 -140 c-118 -241 -160 -388 -161 -557 0 -210 77 -346 246 -429
126 -62 22 -59 2056 -59 1802 0 1858 1 1931 19 154 40 254 115 313 234 96 195
52 470 -130 827 l-54 105 -41 975 c-22 536 -43 1010 -47 1053 -5 65 -3 77 10
77 8 0 44 9 80 20 129 40 246 159 283 288 24 81 21 203 -7 277 -58 158 -184
261 -351 287 -75 12 -77 13 -83 44 -19 106 -127 244 -231 297 -90 45 -118 49
-414 57 -428 11 -496 31 -1080 315 -439 213 -522 236 -884 234 -158 -1 -252
-5 -296 -15z m530 -201 c155 -25 290 -75 540 -198 297 -147 448 -214 596 -264
191 -63 255 -72 569 -80 308 -8 328 -11 393 -74 33 -32 62 -76 62 -96 0 -7
-219 -11 -671 -13 l-671 -3 -29 -33 c-18 -21 -29 -43 -29 -63 0 -37 23 -84 47
-95 10 -5 385 -11 833 -14 811 -5 815 -5 855 -27 161 -87 172 -303 20 -398
l-48 -30 -1992 -3 -1992 -2 -54 28 c-163 85 -160 316 6 405 40 22 44 22 855
27 448 3 823 9 833 14 24 12 47 58 47 97 0 22 -10 41 -34 65 l-34 34 -666 0
-666 0 6 28 c18 79 40 143 66 197 109 219 307 380 568 463 191 61 371 71 590
35z m2230 -1610 c1 -5 23 -496 49 -1093 l49 -1085 71 -136 c79 -152 136 -310
151 -420 29 -208 -64 -315 -295 -339 -154 -17 -3605 -8 -3666 9 -26 7 -71 27
-100 44 -162 97 -147 344 43 707 l71 135 48 1075 c26 591 48 1083 49 1093 0
16 91 17 1765 17 971 0 1765 -3 1765 -7z"/>
<path d="M2524 4170 c-55 -22 -79 -93 -49 -149 44 -87 195 -53 195 44 0 86
-70 136 -146 105z"/>
<path d="M2519 3049 c-62 -9 -103 -32 -157 -87 -82 -85 -137 -230 -148 -397
l-7 -92 -36 8 c-99 23 -198 -1 -260 -62 -90 -90 -94 -245 -10 -410 l30 -61
-24 -27 c-154 -164 -17 -523 286 -752 77 -58 225 -139 254 -139 10 0 13 -33
13 -145 0 -108 4 -153 15 -174 29 -57 119 -65 166 -15 23 24 24 33 27 179 l3
154 37 12 c209 65 472 329 548 549 18 50 25 92 25 148 1 86 -12 128 -55 179
l-27 32 31 66 c121 253 36 468 -185 469 -38 1 -85 -2 -102 -6 l-33 -7 0 83 c0
152 -52 301 -137 396 -73 82 -155 113 -254 99z m104 -249 c62 -73 96 -270 68
-395 -10 -46 -19 -58 -69 -99 -31 -25 -59 -46 -62 -46 -3 0 -30 24 -61 53 -54
50 -57 55 -69 125 -25 151 30 355 108 396 31 17 49 10 85 -34z m-382 -571 c45
-24 109 -69 149 -106 l70 -65 0 -99 c0 -54 -2 -99 -4 -99 -2 0 -37 20 -77 45
-41 24 -107 55 -148 67 -72 22 -76 25 -113 82 -38 58 -68 139 -68 181 0 59 70
57 191 -6z m829 31 c19 -36 -14 -136 -77 -231 -19 -28 -35 -40 -69 -48 -60
-15 -146 -54 -200 -91 -25 -16 -47 -30 -50 -30 -2 0 -4 47 -4 105 l0 104 73
61 c145 123 298 184 327 130z m-863 -505 c69 -31 136 -78 201 -138 l52 -50 0
-159 0 -160 -47 28 c-77 44 -179 132 -234 200 -95 120 -151 261 -118 300 17
20 74 12 146 -21z m858 19 c22 -23 12 -72 -37 -174 -34 -70 -58 -101 -137
-181 -81 -81 -185 -159 -213 -159 -5 0 -8 69 -8 153 l0 154 58 55 c73 70 152
121 228 147 72 25 88 26 109 5z"/>
</g>
</svg>
