<?xml version="1.0" standalone="no"?>
<!DOCTYPE svg PUBLIC "-//W3C//DTD SVG 20010904//EN"
 "http://www.w3.org/TR/2001/REC-SVG-20010904/DTD/svg10.dtd">
<svg version="1.0" xmlns="http://www.w3.org/2000/svg"
 width="512.000000pt" height="512.000000pt" viewBox="0 0 512.000000 512.000000"
 preserveAspectRatio="xMidYMid meet">
<metadata>
Created by potrace 1.16, written by Peter Selinger 2001-2019
</metadata>
<g transform="translate(0.000000,512.000000) scale(0.100000,-0.100000)"
fill="#000000" stroke="none">
<path d="M2370 5099 c-41 -10 -102 -32 -135 -48 -33 -15 -277 -172 -541 -348
l-481 -321 -159 -4 c-153 -3 -161 -4 -206 -31 -31 -18 -57 -44 -75 -75 -27
-45 -28 -54 -31 -199 -3 -120 0 -163 12 -201 18 -53 61 -100 116 -127 19 -10
36 -19 38 -20 2 -2 -12 -56 -32 -122 -264 -890 -323 -1855 -170 -2788 l27
-160 -35 -55 c-58 -90 -96 -172 -106 -230 -27 -145 59 -299 194 -349 55 -21
62 -21 1777 -21 l1722 0 60 28 c104 50 172 147 182 262 8 85 -11 145 -83 265
l-65 107 20 112 c97 543 118 1209 55 1776 -34 313 -112 708 -200 1014 -24 87
-44 160 -42 161 2 1 19 10 38 20 55 27 98 74 116 127 12 38 15 81 12 201 -3
145 -4 154 -31 199 -18 31 -44 57 -75 75 -45 27 -53 28 -205 31 l-159 4 -491
325 c-271 179 -515 337 -543 349 -140 65 -351 83 -504 43z m313 -214 c88 -23
135 -50 484 -283 l326 -217 -467 -3 c-256 -1 -676 -1 -933 0 l-466 3 349 232
c326 216 399 257 489 276 47 10 165 6 218 -8z m1477 -830 l0 -105 -1600 0
-1600 0 0 105 0 105 1600 0 1600 0 0 -105z m-148 -455 c197 -653 284 -1306
258 -1947 -11 -256 -28 -427 -76 -768 -19 -137 -33 -262 -30 -277 3 -15 30
-67 59 -115 96 -156 102 -174 68 -229 -16 -26 -27 -32 -72 -38 -96 -13 -3326
-7 -3355 6 -29 13 -54 55 -54 90 0 13 28 69 61 123 34 55 70 119 80 142 l19
41 -34 204 c-63 371 -86 643 -86 1018 0 466 44 869 145 1322 33 146 138 528
151 550 3 4 640 7 1417 6 l1411 -3 38 -125z"/>
<path d="M2484 3281 c-88 -65 -222 -224 -265 -314 -45 -97 -59 -230 -33 -332
5 -19 1 -20 -76 -17 l-80 4 0 64 c0 37 -6 77 -14 93 -36 68 -156 68 -192 0
-11 -22 -14 -82 -14 -286 0 -290 8 -344 64 -450 l34 -63 -24 -6 c-13 -3 -35
-20 -49 -36 -24 -29 -25 -34 -25 -188 0 -88 5 -183 11 -212 18 -89 76 -194
144 -262 108 -108 228 -156 392 -156 l93 0 0 -200 c0 -254 10 -280 110 -280
100 0 110 26 110 280 l0 200 93 0 c164 0 284 48 392 156 68 68 126 173 144
262 6 29 11 124 11 212 0 154 -1 159 -25 188 -14 16 -35 32 -48 36 l-24 6 34
67 c57 118 63 159 63 446 0 280 -4 302 -55 325 -57 26 -131 6 -153 -43 -7 -14
-12 -55 -12 -90 l0 -63 -80 -4 -80 -3 7 35 c4 19 7 71 7 115 -1 145 -51 249
-193 406 -133 146 -188 168 -267 110z m216 -427 c17 -46 21 -73 17 -124 -5
-82 -34 -142 -102 -217 l-53 -58 -56 55 c-90 87 -124 183 -104 290 11 65 39
115 104 189 l48 54 62 -65 c43 -46 68 -84 84 -124z m-458 -479 c64 -23 141
-94 174 -161 21 -42 28 -74 32 -144 l5 -90 -75 0 c-147 0 -248 57 -307 173
-30 59 -35 80 -39 159 l-5 91 84 -6 c46 -3 105 -13 131 -22z m846 -62 c-5
-105 -35 -180 -95 -240 -63 -63 -122 -87 -232 -91 l-94 -5 5 90 c6 103 27 160
83 222 68 75 153 109 274 110 l63 1 -4 -87z m-846 -578 c64 -23 141 -94 174
-161 21 -42 28 -74 32 -144 l5 -90 -75 0 c-147 0 -248 57 -307 173 -30 59 -35
80 -39 159 l-5 91 84 -6 c46 -3 105 -13 131 -22z m846 -62 c-5 -105 -35 -180
-95 -240 -63 -63 -122 -87 -232 -91 l-94 -5 5 90 c6 103 27 160 83 222 68 75
153 109 274 110 l63 1 -4 -87z"/>
</g>
</svg>
