<svg width="26" height="26" viewBox="0 0 26 26" fill="none" xmlns="http://www.w3.org/2000/svg">
<circle cx="13" cy="13" r="12" fill="#EAF1E6" stroke="#428821"/>
<g clip-path="url(#clip0_397_579)">
<path d="M20 13.0425C20 16.5361 17.4368 19.4323 14.0908 19.9579V15.0795H15.7177L16.0275 13.0611H14.0908V11.7516C14.0908 11.1991 14.3615 10.6613 15.2283 10.6613H16.1086V8.94281C16.1086 8.94281 15.3094 8.80631 14.5458 8.80631C12.951 8.80631 11.9092 9.7729 11.9092 11.5223V13.0606H10.1364V15.0789H11.9092V19.9573C8.56375 19.4311 6 16.5355 6 13.0425C6 9.17673 9.13425 6.04248 13 6.04248C16.8657 6.04248 20 9.17615 20 13.0425Z" fill="#428821"/>
</g>
<defs>
<clipPath id="clip0_397_579">
<rect width="14" height="14" fill="white" transform="translate(6 6)"/>
</clipPath>
</defs>
</svg>
