<svg width="26" height="26" viewBox="0 0 26 26" fill="none" xmlns="http://www.w3.org/2000/svg">
<circle cx="13" cy="13" r="12" fill="#EAF1E6" stroke="#428821"/>
<g clip-path="url(#clip0_397_574)">
<path d="M13 7.26117C14.869 7.26117 15.0907 7.26817 15.8286 7.302C16.5916 7.337 17.3773 7.51083 17.9333 8.06675C18.4944 8.62792 18.663 9.40608 18.698 10.1714C18.7318 10.9093 18.7388 11.131 18.7388 13C18.7388 14.869 18.7318 15.0907 18.698 15.8286C18.6636 16.5875 18.4857 17.3808 17.9333 17.9333C17.3721 18.4944 16.5945 18.663 15.8286 18.698C15.0907 18.7318 14.869 18.7388 13 18.7388C11.131 18.7388 10.9093 18.7318 10.1714 18.698C9.41833 18.6636 8.6145 18.4816 8.06675 17.9333C7.5085 17.375 7.337 16.5893 7.302 15.8286C7.26817 15.0907 7.26117 14.869 7.26117 13C7.26117 11.131 7.26817 10.9093 7.302 10.1714C7.33642 9.41542 7.51608 8.61742 8.06675 8.06675C8.62675 7.50675 9.40783 7.337 10.1714 7.302C10.9093 7.26817 11.131 7.26117 13 7.26117ZM13 6C11.0989 6 10.8603 6.00817 10.1137 6.042C9.03158 6.09158 7.95708 6.39258 7.17483 7.17483C6.38967 7.96 6.09158 9.03217 6.042 10.1137C6.00817 10.8603 6 11.0989 6 13C6 14.9011 6.00817 15.1397 6.042 15.8863C6.09158 16.9672 6.39375 18.0447 7.17483 18.8252C7.95942 19.6097 9.03333 19.9084 10.1137 19.958C10.8603 19.9918 11.0989 20 13 20C14.9011 20 15.1397 19.9918 15.8863 19.958C16.9678 19.9084 18.0435 19.6068 18.8252 18.8252C19.6109 18.0394 19.9084 16.9678 19.958 15.8863C19.9918 15.1397 20 14.9011 20 13C20 11.0989 19.9918 10.8603 19.958 10.1137C19.9084 9.03158 19.6068 7.9565 18.8252 7.17483C18.0417 6.39142 16.9649 6.091 15.8863 6.042C15.1397 6.00817 14.9011 6 13 6Z" fill="#428821"/>
<path d="M13 9.40552C11.0149 9.40552 9.40552 11.0149 9.40552 13C9.40552 14.9851 11.0149 16.5945 13 16.5945C14.9851 16.5945 16.5945 14.9851 16.5945 13C16.5945 11.0149 14.9851 9.40552 13 9.40552ZM13 15.3334C11.7114 15.3334 10.6667 14.2886 10.6667 13C10.6667 11.7114 11.7114 10.6667 13 10.6667C14.2886 10.6667 15.3334 11.7114 15.3334 13C15.3334 14.2886 14.2886 15.3334 13 15.3334Z" fill="#428821"/>
<path d="M16.7369 10.1031C17.2008 10.1031 17.5769 9.72701 17.5769 9.2631C17.5769 8.79918 17.2008 8.4231 16.7369 8.4231C16.2729 8.4231 15.8969 8.79918 15.8969 9.2631C15.8969 9.72701 16.2729 10.1031 16.7369 10.1031Z" fill="#428821"/>
</g>
<defs>
<clipPath id="clip0_397_574">
<rect width="14" height="14" fill="white" transform="translate(6 6)"/>
</clipPath>
</defs>
</svg>
