<svg width="26" height="26" viewBox="0 0 26 26" fill="none" xmlns="http://www.w3.org/2000/svg">
<circle cx="13" cy="13" r="12" fill="#EAF1E6" stroke="#428821"/>
<g clip-path="url(#clip0_397_578)">
<path d="M17.6382 17.7606H15.6142V14.5911C15.6142 13.8352 15.6008 12.8626 14.5615 12.8626C13.5075 12.8626 13.346 13.6858 13.346 14.5365V17.7606H11.3227V11.2425H13.2659V12.133H13.2928C13.6892 11.4559 14.4256 11.0513 15.2097 11.0803C17.2612 11.0803 17.6388 12.4298 17.6388 14.1845L17.6382 17.7606ZM9.03894 10.3513C8.3901 10.3513 7.86442 9.82568 7.86442 9.17683C7.86442 8.52798 8.3901 8.00231 9.03894 8.00231C9.68779 8.00231 10.2135 8.52798 10.2135 9.17683C10.2135 9.82568 9.68779 10.3513 9.03894 10.3513ZM10.0506 17.7606H8.02462V11.2425H10.0506V17.7606ZM18.6471 6.12308H7.0076C6.45769 6.11702 6.00673 6.55789 6 7.10779V18.7951C6.00673 19.3457 6.45769 19.7865 7.0076 19.7805H18.6471C19.1984 19.7872 19.6513 19.3463 19.6587 18.7951V7.10712C19.6507 6.55587 19.1977 6.115 18.6471 6.12241" fill="#428821"/>
</g>
<defs>
<clipPath id="clip0_397_578">
<rect width="14" height="14" fill="white" transform="translate(6 6)"/>
</clipPath>
</defs>
</svg>
