<svg width="26" height="26" viewBox="0 0 26 26" fill="none" xmlns="http://www.w3.org/2000/svg">
<circle cx="13" cy="13" r="12" fill="#EAF1E6" stroke="#428821"/>
<g clip-path="url(#clip0_397_575)">
<path d="M19.9732 9.23291L15.0627 14.1434C14.5151 14.6896 13.7733 14.9963 13 14.9963C12.2266 14.9963 11.4849 14.6896 10.9373 14.1434L6.02683 9.23291C6.01867 9.32508 6 9.40849 6 9.50008V16.5001C6.00093 17.2733 6.30851 18.0147 6.85529 18.5614C7.40208 19.1082 8.1434 19.4158 8.91667 19.4167H17.0833C17.8566 19.4158 18.5979 19.1082 19.1447 18.5614C19.6915 18.0147 19.9991 17.2733 20 16.5001V9.50008C20 9.40849 19.9813 9.32508 19.9732 9.23291Z" fill="#428821"/>
<path d="M14.2378 13.3184L19.566 7.98967C19.3078 7.56169 18.9438 7.20744 18.5089 6.96109C18.0741 6.71475 17.5831 6.58462 17.0833 6.58325H8.91663C8.41684 6.58462 7.92584 6.71475 7.49098 6.96109C7.05612 7.20744 6.69207 7.56169 6.43396 7.98967L11.7621 13.3184C12.0909 13.6459 12.536 13.8297 13 13.8297C13.464 13.8297 13.909 13.6459 14.2378 13.3184Z" fill="#428821"/>
</g>
<defs>
<clipPath id="clip0_397_575">
<rect width="14" height="14" fill="white" transform="translate(6 6)"/>
</clipPath>
</defs>
</svg>
