<svg width="26" height="26" viewBox="0 0 26 26" fill="none" xmlns="http://www.w3.org/2000/svg">
<circle cx="13" cy="13" r="12" fill="#EAF1E6" stroke="#428821"/>
<g clip-path="url(#clip0_397_576)">
<path d="M16.36 20C11.9034 20 6.00002 14.0909 6.00002 9.64005C6.00002 8.66588 6.36752 7.75588 7.03835 7.08505L7.70919 6.50171C8.38585 5.82505 9.52919 5.82505 10.235 6.53088C10.2525 6.54838 11.3317 7.95421 11.3317 7.95421C11.9967 8.65421 11.9967 9.75671 11.3317 10.4509L10.6492 11.3025C11.4425 13.1692 12.7725 14.4934 14.7034 15.345L15.555 14.6684C16.2492 13.9975 17.3575 13.9975 18.0517 14.6684C18.0517 14.6684 19.4575 15.7475 19.475 15.765C20.1809 16.4709 20.1809 17.6142 19.475 18.32L18.9442 18.9325C18.25 19.6325 17.34 20 16.3659 20H16.36Z" fill="#428821"/>
</g>
<defs>
<clipPath id="clip0_397_576">
<rect width="14" height="14" fill="white" transform="matrix(0 1 -1 0 20 6)"/>
</clipPath>
</defs>
</svg>
