<svg width="26" height="26" viewBox="0 0 26 26" fill="none" xmlns="http://www.w3.org/2000/svg">
<circle cx="13" cy="13" r="12" fill="#EAF1E6" stroke="#428821"/>
<g clip-path="url(#clip0_397_573)">
<path d="M18.5667 10.144C18.5749 10.267 18.5749 10.3907 18.5749 10.515C18.5749 14.3107 15.6851 18.6875 10.4024 18.6875V18.6851C8.842 18.6875 7.31367 18.2406 6 17.3977C6.22692 17.4251 6.455 17.4385 6.68367 17.4391C7.9775 17.4403 9.234 17.0063 10.2507 16.2071C9.02167 16.1838 7.94367 15.3823 7.56742 14.2121C7.99792 14.295 8.44125 14.278 8.86417 14.1631C7.52367 13.8925 6.56 12.7147 6.56 11.3474C6.56 11.3351 6.56 11.3229 6.56 11.3112C6.95958 11.534 7.40642 11.6571 7.86375 11.6705C6.60142 10.8276 6.21175 9.14879 6.97417 7.83629C8.4325 9.63062 10.5844 10.7215 12.8938 10.8375C12.6622 9.84004 12.979 8.7947 13.7245 8.09295C14.8812 7.00504 16.7007 7.06104 17.7886 8.21779C18.432 8.0912 19.0486 7.85495 19.6127 7.5207C19.398 8.1857 18.9494 8.75037 18.3497 9.1097C18.9197 9.04145 19.4756 8.8892 20 8.65704C19.6144 9.23395 19.1291 9.73737 18.5667 10.144Z" fill="#428821"/>
</g>
<defs>
<clipPath id="clip0_397_573">
<rect width="14" height="14" fill="white" transform="translate(6 6)"/>
</clipPath>
</defs>
</svg>
